<?xml version="1.0" encoding="UTF-8"?>
<!DOCTYPE svg PUBLIC "-//W3C//DTD SVG 1.1//EN" "http://www.w3.org/Graphics/SVG/1.1/DTD/svg11.dtd">
<!-- Creator: CorelDRAW 2018 (64-Bit) -->
<svg xmlns="http://www.w3.org/2000/svg" xml:space="preserve" width="2.00099in" height="0.448839in" version="1.1" style="shape-rendering:geometricPrecision; text-rendering:geometricPrecision; image-rendering:optimizeQuality; fill-rule:evenodd; clip-rule:evenodd"
viewBox="0 0 846.76 189.94"
 xmlns:xlink="http://www.w3.org/1999/xlink">
 <defs>
  <style type="text/css">
   <![CDATA[
    .fil0 {fill:#FFFFFF;fill-rule:nonzero}
   ]]>
  </style>
 </defs>
 <g id="Layer_x0020_1">
  <metadata id="CorelCorpID_0Corel-Layer"/>
  <path class="fil0" d="M287.91 0l21.13 0 0 189.94 -21.13 0 0 -189.94zm181.22 140.22c-8.64,0.28 -15.98,0.95 -22.05,2.04 -6.07,1.09 -11.03,2.53 -14.85,4.28 -3.83,1.76 -6.6,3.83 -8.32,6.22 -1.72,2.39 -2.6,5.06 -2.6,8.01 0,2.81 0.46,5.23 1.37,7.27 0.91,2.04 2.18,3.69 3.76,4.98 1.58,1.3 3.44,2.25 5.58,2.84 2.14,0.6 4.42,0.91 6.88,0.91 3.3,0 6.32,-0.35 9.06,-1.02 2.74,-0.67 5.34,-1.61 7.76,-2.88 2.42,-1.26 4.74,-2.77 6.95,-4.53 2.21,-1.76 4.36,-3.76 6.46,-6l0 -22.12zm-60.57 -43.61c5.9,-5.69 12.25,-9.94 19.07,-12.75 6.81,-2.81 14.36,-4.22 22.65,-4.22 5.97,0 11.27,0.98 15.91,2.95 4.63,1.97 8.53,4.7 11.69,8.22 3.16,3.51 5.55,7.76 7.16,12.75 1.62,4.99 2.42,10.46 2.42,16.43l0 68.26 -8.32 0c-1.83,0 -3.23,-0.32 -4.21,-0.91 -0.98,-0.6 -1.76,-1.76 -2.32,-3.51l-2.11 -10.11c-2.81,2.6 -5.55,4.88 -8.22,6.88 -2.67,2 -5.48,3.69 -8.43,5.05 -2.95,1.37 -6.07,2.42 -9.41,3.16 -3.34,0.74 -7.06,1.12 -11.13,1.12 -4.14,0 -8.04,-0.6 -11.69,-1.76 -3.65,-1.16 -6.81,-2.88 -9.51,-5.2 -2.7,-2.32 -4.85,-5.27 -6.43,-8.81 -1.58,-3.55 -2.39,-7.73 -2.39,-12.57 0,-4.21 1.16,-8.29 3.48,-12.19 2.32,-3.9 6.07,-7.34 11.27,-10.36 5.2,-3.02 11.97,-5.51 20.33,-7.44 8.36,-1.93 18.61,-3.02 30.76,-3.3l0 -8.32c0,-8.29 -1.79,-14.57 -5.37,-18.82 -3.58,-4.25 -8.81,-6.36 -15.7,-6.36 -4.63,0 -8.5,0.56 -11.62,1.72 -3.13,1.16 -5.83,2.46 -8.11,3.9 -2.28,1.44 -4.25,2.74 -5.9,3.9 -1.65,1.16 -3.3,1.75 -4.92,1.75 -1.26,0 -2.35,-0.35 -3.27,-1.02 -0.91,-0.67 -1.68,-1.47 -2.32,-2.46l-3.37 -6zm195.19 -15.06l0 106.71 -11.17 0c-2.67,0 -4.36,-1.3 -5.06,-3.9l-1.47 -11.48c-4.63,5.13 -9.83,9.23 -15.59,12.36 -5.76,3.12 -12.36,4.7 -19.8,4.7 -5.83,0 -10.95,-0.98 -15.41,-2.92 -4.46,-1.93 -8.22,-4.63 -11.24,-8.15 -3.02,-3.51 -5.27,-7.76 -6.78,-12.75 -1.51,-4.98 -2.28,-10.5 -2.28,-16.54l0 -68.05 18.75 0 0 68.05c0,8.08 1.86,14.33 5.55,18.75 3.69,4.42 9.3,6.64 16.89,6.64 5.55,0 10.74,-1.33 15.56,-3.97 4.81,-2.63 9.23,-6.25 13.31,-10.88l0 -78.58 18.75 0zm47.4 15.48c2.32,-2.6 4.77,-4.95 7.37,-7.06 2.6,-2.11 5.37,-3.93 8.29,-5.44 2.91,-1.51 6,-2.67 9.27,-3.48 3.27,-0.81 6.78,-1.19 10.57,-1.19 5.83,0 10.99,0.95 15.45,2.88 4.46,1.93 8.18,4.67 11.17,8.22 2.98,3.55 5.23,7.83 6.78,12.82 1.54,4.99 2.32,10.5 2.32,16.54l0 67.94 -18.85 0 0 -67.94c0,-8.08 -1.83,-14.36 -5.51,-18.82 -3.69,-4.46 -9.3,-6.67 -16.82,-6.67 -5.55,0 -10.71,1.33 -15.52,4 -4.81,2.67 -9.27,6.28 -13.34,10.85l0 78.58 -18.85 0 0 -106.71 11.27 0c2.67,0 4.32,1.3 4.95,3.9l1.47 11.59zm144.84 -17.17c7.79,0 14.82,1.3 21.07,3.9 6.25,2.6 11.59,6.29 16.01,11.06 4.42,4.77 7.83,10.53 10.18,17.31 2.35,6.78 3.51,14.36 3.51,22.72 0,8.43 -1.16,16.01 -3.51,22.75 -2.35,6.74 -5.76,12.5 -10.18,17.28 -4.42,4.78 -9.76,8.43 -16.01,10.99 -6.25,2.56 -13.27,3.86 -21.07,3.86 -7.87,0 -14.92,-1.3 -21.21,-3.86 -6.28,-2.56 -11.66,-6.21 -16.08,-10.99 -4.42,-4.77 -7.79,-10.53 -10.15,-17.28 -2.35,-6.74 -3.55,-14.33 -3.55,-22.75 0,-8.36 1.19,-15.94 3.55,-22.72 2.35,-6.78 5.72,-12.54 10.15,-17.31 4.42,-4.77 9.8,-8.46 16.08,-11.06 6.29,-2.6 13.34,-3.9 21.21,-3.9zm0 95.23c10.53,0 18.4,-3.55 23.59,-10.6 5.2,-7.06 7.8,-16.89 7.8,-29.53 0,-12.71 -2.6,-22.61 -7.8,-29.7 -5.2,-7.09 -13.06,-10.64 -23.59,-10.64 -5.34,0 -9.97,0.91 -13.94,2.74 -3.97,1.82 -7.27,4.46 -9.9,7.9 -2.63,3.44 -4.6,7.65 -5.9,12.68 -1.3,5.02 -1.97,10.71 -1.97,17.03 0,12.64 2.63,22.47 7.87,29.53 5.23,7.06 13.17,10.6 23.84,10.6zm-718.46 -51.62c0,-4.35 -0.6,-8.36 -1.83,-11.97 -1.23,-3.62 -3.02,-6.74 -5.37,-9.37 -2.35,-2.63 -5.23,-4.67 -8.6,-6.11 -3.37,-1.44 -7.2,-2.14 -11.48,-2.14 -8.99,0 -16.08,2.6 -21.31,7.83 -5.23,5.23 -8.5,12.5 -9.76,21.77l58.36 0zm15.17 50.04c-2.32,2.81 -5.09,5.23 -8.32,7.3 -3.23,2.07 -6.67,3.79 -10.36,5.13 -3.69,1.33 -7.51,2.32 -11.45,2.98 -3.93,0.67 -7.83,1.02 -11.69,1.02 -7.37,0 -14.15,-1.26 -20.37,-3.76 -6.21,-2.49 -11.59,-6.14 -16.12,-10.96 -4.53,-4.81 -8.08,-10.74 -10.6,-17.84 -2.53,-7.09 -3.79,-15.24 -3.79,-24.44 0,-7.44 1.16,-14.4 3.44,-20.86 2.28,-6.46 5.55,-12.08 9.83,-16.82 4.28,-4.74 9.51,-8.46 15.7,-11.17 6.18,-2.7 13.13,-4.04 20.86,-4.04 6.39,0 12.32,1.05 17.77,3.2 5.44,2.14 10.15,5.23 14.12,9.27 3.97,4.04 7.06,9.02 9.3,14.96 2.25,5.93 3.37,12.71 3.37,20.3 0,2.95 -0.31,4.91 -0.95,5.9 -0.63,0.98 -1.83,1.48 -3.58,1.48l-71.31 0c0.21,6.74 1.16,12.61 2.81,17.59 1.65,4.99 3.93,9.13 6.88,12.47 2.95,3.34 6.46,5.83 10.53,7.48 4.07,1.65 8.64,2.49 13.69,2.49 4.71,0 8.78,-0.56 12.19,-1.65 3.41,-1.09 6.32,-2.25 8.78,-3.51 2.46,-1.26 4.53,-2.46 6.18,-3.55 1.65,-1.09 3.06,-1.61 4.25,-1.61 1.55,0 2.74,0.6 3.58,1.79l5.27 6.85zm24.65 14.96l0 -106.71 11.27 0c2.67,0 4.32,1.3 4.95,3.9l1.37 10.96c3.93,-4.84 8.36,-8.81 13.27,-11.9 4.92,-3.09 10.6,-4.63 17.07,-4.63 7.16,0 12.99,2 17.45,6 4.46,4 7.65,9.41 9.62,16.22 1.55,-3.86 3.55,-7.2 5.97,-10.01 2.42,-2.81 5.13,-5.13 8.15,-6.95 3.02,-1.83 6.25,-3.16 9.66,-4 3.41,-0.84 6.85,-1.26 10.36,-1.26 5.62,0 10.64,0.88 15.03,2.67 4.39,1.79 8.11,4.42 11.17,7.87 3.06,3.44 5.37,7.66 6.99,12.68 1.62,5.02 2.42,10.78 2.42,17.24l0 67.94 -18.85 0 0 -67.94c0,-8.36 -1.83,-14.71 -5.48,-19.03 -3.65,-4.32 -8.92,-6.46 -15.8,-6.46 -3.09,0 -6,0.53 -8.78,1.61 -2.77,1.09 -5.23,2.7 -7.34,4.81 -2.11,2.11 -3.76,4.74 -4.99,7.94 -1.23,3.2 -1.86,6.92 -1.86,11.13l0 67.94 -18.86 0 0 -67.94c0,-8.57 -1.72,-14.96 -5.16,-19.17 -3.44,-4.21 -8.46,-6.32 -15.06,-6.32 -4.63,0 -8.92,1.23 -12.85,3.72 -3.93,2.49 -7.55,5.9 -10.85,10.18l0 79.53 -18.86 0zm276.45 1.47l-24.45 0 -55.56 -66.95 0 -4.75 47.96 -55.08 23.03 0 -50.33 56.98 59.35 69.8z"/>
 </g>
</svg>
