<?xml version="1.0" encoding="UTF-8"?>
<!DOCTYPE svg PUBLIC "-//W3C//DTD SVG 1.1//EN" "http://www.w3.org/Graphics/SVG/1.1/DTD/svg11.dtd">
<!-- Creator: CorelDRAW 2018 (64-Bit) -->
<svg xmlns="http://www.w3.org/2000/svg" xml:space="preserve" width="2.00794in" height="0.455783in" version="1.1" style="shape-rendering:geometricPrecision; text-rendering:geometricPrecision; image-rendering:optimizeQuality; fill-rule:evenodd; clip-rule:evenodd"
viewBox="0 0 851.4 193.26"
 xmlns:xlink="http://www.w3.org/1999/xlink">
 <defs>
  <style type="text/css">
   <![CDATA[
    .str0 {stroke:#FFFFFF;stroke-width:2.94;stroke-linejoin:round;stroke-miterlimit:2.61313}
    .fil0 {fill:none;fill-rule:nonzero}
   ]]>
  </style>
 </defs>
 <g id="Layer_x0020_1">
  <path class="fil0 str0" d="M289.96 1.47l21.17 0 0 190.32 -21.17 0 0 -190.32zm181.58 140.5c-8.65,0.28 -16.01,0.95 -22.09,2.04 -6.09,1.09 -11.05,2.53 -14.88,4.29 -3.83,1.76 -6.61,3.84 -8.34,6.23 -1.72,2.39 -2.6,5.07 -2.6,8.02 0,2.81 0.46,5.24 1.37,7.28 0.91,2.04 2.18,3.69 3.76,4.99 1.58,1.3 3.45,2.25 5.59,2.85 2.15,0.6 4.43,0.91 6.9,0.91 3.31,0 6.33,-0.35 9.08,-1.02 2.74,-0.67 5.35,-1.62 7.77,-2.88 2.43,-1.27 4.75,-2.78 6.97,-4.54 2.22,-1.76 4.36,-3.76 6.47,-6.02l0 -22.16zm-60.69 -43.7c5.91,-5.7 12.28,-9.96 19.1,-12.77 6.83,-2.82 14.39,-4.22 22.69,-4.22 5.98,0 11.29,0.99 15.94,2.96 4.64,1.97 8.55,4.71 11.72,8.23 3.17,3.52 5.56,7.78 7.18,12.77 1.62,5 2.43,10.48 2.43,16.46l0 68.4 -8.34 0c-1.83,0 -3.24,-0.32 -4.22,-0.91 -0.98,-0.6 -1.76,-1.76 -2.32,-3.52l-2.11 -10.13c-2.81,2.6 -5.56,4.89 -8.23,6.9 -2.67,2 -5.49,3.69 -8.45,5.06 -2.95,1.37 -6.09,2.43 -9.43,3.17 -3.34,0.74 -7.07,1.13 -11.15,1.13 -4.15,0 -8.06,-0.6 -11.72,-1.76 -3.66,-1.16 -6.83,-2.88 -9.53,-5.21 -2.71,-2.32 -4.86,-5.28 -6.44,-8.83 -1.58,-3.55 -2.39,-7.74 -2.39,-12.6 0,-4.22 1.16,-8.3 3.48,-12.21 2.32,-3.9 6.09,-7.35 11.29,-10.38 5.21,-3.02 12,-5.52 20.37,-7.46 8.37,-1.93 18.65,-3.02 30.82,-3.31l0 -8.34c0,-8.3 -1.79,-14.6 -5.38,-18.86 -3.59,-4.26 -8.83,-6.37 -15.73,-6.37 -4.64,0 -8.51,0.56 -11.65,1.72 -3.13,1.16 -5.84,2.46 -8.13,3.9 -2.29,1.44 -4.26,2.74 -5.91,3.91 -1.65,1.16 -3.31,1.76 -4.93,1.76 -1.27,0 -2.36,-0.35 -3.27,-1.02 -0.91,-0.67 -1.69,-1.48 -2.32,-2.46l-3.38 -6.02zm195.58 -15.09l0 106.92 -11.19 0c-2.67,0 -4.36,-1.3 -5.07,-3.9l-1.48 -11.51c-4.64,5.14 -9.85,9.25 -15.62,12.39 -5.77,3.13 -12.39,4.71 -19.84,4.71 -5.84,0 -10.98,-0.98 -15.44,-2.92 -4.47,-1.93 -8.23,-4.64 -11.26,-8.16 -3.02,-3.52 -5.28,-7.78 -6.79,-12.77 -1.51,-4.99 -2.29,-10.52 -2.29,-16.57l0 -68.18 18.79 0 0 68.18c0,8.09 1.86,14.35 5.56,18.79 3.69,4.43 9.32,6.65 16.92,6.65 5.56,0 10.77,-1.34 15.59,-3.97 4.82,-2.64 9.25,-6.26 13.33,-10.91l0 -78.74 18.79 0zm47.5 15.52c2.32,-2.6 4.78,-4.96 7.39,-7.07 2.6,-2.11 5.38,-3.94 8.3,-5.45 2.92,-1.51 6.02,-2.67 9.29,-3.48 3.27,-0.81 6.79,-1.2 10.59,-1.2 5.84,0 11.01,0.95 15.48,2.88 4.47,1.93 8.2,4.68 11.19,8.23 2.99,3.55 5.24,7.85 6.79,12.84 1.55,5 2.32,10.52 2.32,16.57l0 68.08 -18.89 0 0 -68.08c0,-8.09 -1.83,-14.39 -5.52,-18.86 -3.69,-4.47 -9.32,-6.68 -16.85,-6.68 -5.56,0 -10.73,1.34 -15.55,4.01 -4.82,2.67 -9.29,6.3 -13.37,10.87l0 78.74 -18.89 0 0 -106.92 11.29 0c2.67,0 4.33,1.3 4.96,3.9l1.48 11.61zm145.13 -17.2c7.81,0 14.85,1.3 21.11,3.9 6.26,2.6 11.61,6.3 16.04,11.08 4.43,4.78 7.85,10.56 10.2,17.34 2.36,6.79 3.52,14.39 3.52,22.76 0,8.44 -1.16,16.04 -3.52,22.8 -2.36,6.76 -5.77,12.53 -10.2,17.31 -4.43,4.79 -9.78,8.44 -16.04,11.01 -6.26,2.57 -13.3,3.87 -21.11,3.87 -7.88,0 -14.95,-1.3 -21.25,-3.87 -6.3,-2.57 -11.68,-6.23 -16.11,-11.01 -4.43,-4.78 -7.81,-10.55 -10.17,-17.31 -2.36,-6.75 -3.55,-14.35 -3.55,-22.8 0,-8.37 1.2,-15.97 3.55,-22.76 2.36,-6.79 5.73,-12.56 10.17,-17.34 4.43,-4.78 9.82,-8.48 16.11,-11.08 6.3,-2.6 13.37,-3.9 21.25,-3.9zm0 95.42c10.55,0 18.43,-3.55 23.64,-10.63 5.21,-7.07 7.81,-16.92 7.81,-29.59 0,-12.74 -2.6,-22.66 -7.81,-29.76 -5.21,-7.11 -13.09,-10.66 -23.64,-10.66 -5.35,0 -9.99,0.91 -13.97,2.74 -3.98,1.83 -7.28,4.47 -9.92,7.92 -2.64,3.45 -4.61,7.67 -5.91,12.7 -1.3,5.03 -1.97,10.73 -1.97,17.06 0,12.67 2.64,22.52 7.88,29.59 5.24,7.07 13.19,10.63 23.89,10.63zm-719.9 -51.72c0,-4.36 -0.6,-8.37 -1.83,-12 -1.23,-3.62 -3.03,-6.75 -5.38,-9.39 -2.36,-2.64 -5.24,-4.68 -8.62,-6.12 -3.38,-1.44 -7.21,-2.15 -11.51,-2.15 -9.01,0 -16.11,2.6 -21.36,7.85 -5.24,5.24 -8.52,12.53 -9.78,21.81l58.48 0zm15.2 50.14c-2.32,2.81 -5.1,5.24 -8.34,7.32 -3.24,2.08 -6.69,3.8 -10.38,5.14 -3.69,1.34 -7.53,2.32 -11.47,2.99 -3.94,0.67 -7.85,1.02 -11.72,1.02 -7.39,0 -14.18,-1.27 -20.41,-3.76 -6.23,-2.5 -11.61,-6.16 -16.15,-10.98 -4.54,-4.82 -8.09,-10.77 -10.63,-17.87 -2.53,-7.11 -3.8,-15.27 -3.8,-24.49 0,-7.46 1.16,-14.42 3.45,-20.9 2.29,-6.47 5.56,-12.1 9.85,-16.85 4.29,-4.75 9.53,-8.48 15.73,-11.19 6.19,-2.71 13.16,-4.05 20.9,-4.05 6.4,0 12.35,1.06 17.8,3.2 5.45,2.15 10.17,5.24 14.14,9.29 3.97,4.05 7.07,9.04 9.32,14.99 2.25,5.95 3.38,12.74 3.38,20.34 0,2.95 -0.32,4.92 -0.95,5.91 -0.63,0.99 -1.83,1.48 -3.59,1.48l-71.46 0c0.21,6.75 1.16,12.63 2.81,17.63 1.65,5 3.94,9.15 6.9,12.49 2.95,3.34 6.47,5.84 10.56,7.49 4.08,1.65 8.66,2.5 13.72,2.5 4.72,0 8.8,-0.56 12.21,-1.65 3.41,-1.09 6.33,-2.25 8.8,-3.52 2.46,-1.27 4.54,-2.46 6.19,-3.55 1.65,-1.09 3.06,-1.62 4.26,-1.62 1.55,0 2.74,0.6 3.59,1.79l5.28 6.86zm24.7 14.99l0 -106.92 11.29 0c2.67,0 4.33,1.3 4.96,3.9l1.37 10.98c3.94,-4.85 8.37,-8.83 13.3,-11.93 4.93,-3.09 10.63,-4.64 17.1,-4.64 7.18,0 13.02,2.01 17.49,6.02 4.47,4.01 7.67,9.43 9.64,16.25 1.55,-3.87 3.55,-7.21 5.98,-10.03 2.43,-2.81 5.14,-5.14 8.16,-6.97 3.03,-1.83 6.26,-3.17 9.68,-4.01 3.41,-0.84 6.86,-1.27 10.38,-1.27 5.63,0 10.66,0.88 15.06,2.67 4.4,1.79 8.13,4.43 11.19,7.88 3.06,3.45 5.38,7.67 7,12.7 1.62,5.03 2.43,10.8 2.43,17.27l0 68.08 -18.89 0 0 -68.08c0,-8.37 -1.83,-14.74 -5.49,-19.07 -3.66,-4.33 -8.94,-6.47 -15.83,-6.47 -3.1,0 -6.02,0.53 -8.8,1.62 -2.78,1.09 -5.24,2.71 -7.35,4.82 -2.11,2.11 -3.76,4.75 -5,7.95 -1.23,3.2 -1.86,6.93 -1.86,11.15l0 68.08 -18.89 0 0 -68.08c0,-8.59 -1.72,-14.99 -5.17,-19.21 -3.45,-4.22 -8.48,-6.33 -15.09,-6.33 -4.64,0 -8.94,1.23 -12.88,3.73 -3.94,2.5 -7.56,5.91 -10.87,10.2l0 79.69 -18.89 0zm277 1.48l-24.5 0 -55.67 -67.09 0 -4.76 48.05 -55.19 23.08 0 -50.43 57.09 59.47 69.94z"/>
 </g>
</svg>
