<?xml version="1.0" encoding="UTF-8"?>
<!DOCTYPE svg PUBLIC "-//W3C//DTD SVG 1.1//EN" "http://www.w3.org/Graphics/SVG/1.1/DTD/svg11.dtd">
<!-- Creator: CorelDRAW 2018 (64-Bit) -->
<svg xmlns="http://www.w3.org/2000/svg" xml:space="preserve" width="11.7417in" height="2.84974in" version="1.1" style="shape-rendering:geometricPrecision; text-rendering:geometricPrecision; image-rendering:optimizeQuality; fill-rule:evenodd; clip-rule:evenodd"
viewBox="0 0 11351.18 2754.97"
 xmlns:xlink="http://www.w3.org/1999/xlink">
 <defs>
  <style type="text/css">
   <![CDATA[
    .fil0 {fill:#00000095 }
   ]]>
  </style>
 </defs>
 <g id="Layer_x0020_1">
  <metadata id="CorelCorpID_0Corel-Layer"/>
  <path class="fil0" d="M9671.48 365.39c-8.89,31.72 -32.19,26.81 20.54,70.83 8.46,7.06 4.9,2.74 11.32,9.22 8.31,8.38 3.89,2.7 9.54,11.7 42.82,68.16 7.64,12.39 35.72,45.54 14.94,17.64 13.82,42.73 20.18,61.09 31.64,-55.68 -21.11,-41.65 17.71,-112.11 52.67,-13.76 54.37,38.41 58.25,73.86 -1.46,0.22 -3.62,-0.4 -4.42,-0.37l-8.6 0.18c-30.39,5.07 1.18,-13.34 -15.04,7 44.15,92.11 109.66,95.26 83.24,309 -8.3,67.14 12.13,99.07 29.95,158.33 9.74,32.36 40.1,71.76 64.5,95.46 -24.39,-23.7 -54.76,-63.1 -64.5,-95.46 -17.83,-59.26 -38.26,-91.19 -29.95,-158.33 26.42,-213.75 -39.09,-216.9 -83.24,-309 16.21,-20.34 -15.35,-1.93 15.04,-7l8.6 -0.18c0.8,-0.03 2.96,0.59 4.42,0.37 -3.89,-35.45 -5.58,-87.62 -58.25,-73.86 -38.82,70.46 13.94,56.43 -17.71,112.11 -6.36,-18.36 -5.24,-43.44 -20.18,-61.09 -28.08,-33.15 7.1,22.63 -35.72,-45.54 -5.65,-8.99 -1.23,-3.32 -9.54,-11.7 -6.42,-6.48 -2.87,-2.16 -11.32,-9.22 -52.73,-44.02 -29.43,-39.11 -20.54,-70.83l-41.81 33.5c18.33,15.54 15,49.13 16.07,77.41 13.65,10.89 16.23,9.29 34.83,18.8 5.11,43.81 21.01,114.35 22.44,152.4 2.07,54.82 -9.65,114.79 -14.58,170.09 -8.1,90.85 -35.39,204.31 -74.39,282.19 28.21,12.32 136.31,24.45 172.44,27.43l9.64 -45.81 19.18 53.05c52.28,4.43 107.57,-28.85 159.55,-7.57 7.76,21.66 -8.04,40.89 14.83,49.79 -22.87,-8.9 -7.07,-28.13 -14.83,-49.79 -51.98,-21.28 -107.27,11.99 -159.55,7.57l-19.18 -53.05 -9.64 45.81c-36.13,-2.98 -144.23,-15.11 -172.44,-27.43 39,-77.88 66.29,-191.35 74.39,-282.19 4.93,-55.3 16.65,-115.27 14.58,-170.09 -1.43,-38.05 -17.34,-108.58 -22.44,-152.4 -18.6,-9.51 -21.18,-7.91 -34.83,-18.8 -1.07,-28.28 2.25,-61.86 -16.07,-77.41l-26.27 29.08c-25.63,-4.92 -18.12,-13.14 -45.59,-21.94 -41.19,-13.19 -61.92,24.15 -96.74,-24.32 -40.53,-56.44 -48.88,-30.21 -97.08,-113.5 -13.37,-23.11 -37.75,-72.85 -61.79,-83.99 10.28,28.15 14.03,59.2 -15.11,80.31 -39.26,28.44 -58.2,3.32 -82.01,-9.34 3.28,22.97 24.59,40.36 42.39,61.54 54.51,64.86 11.51,38.03 75.87,121.33l61.3 87.44c-17.04,24.86 -77.6,53.82 -147.65,130.48l-133.91 121.71c-38.49,8.93 -41.76,-101.62 -43.33,-130.17 -1.73,-31.6 -12.68,-37.94 -19.43,-62.35 -15.1,-54.64 -12.85,-162.83 -74.61,-185.15 -37.19,-13.44 -89.58,-28.62 -117.49,-48.42 -2.42,29.8 -0.76,8.25 7.91,39.76 -2.38,-0.77 -16.12,-5.08 -17.24,-5.09 -12.88,-0.21 -2.95,-1.47 -11.7,3.26 6.59,72.88 24.83,116.53 3.78,195.03 -12.24,45.65 -68.96,109.83 -99.54,125.71 -21.15,-46.5 -59.35,-114.29 -62.91,-178.76 -1.38,-25.04 2.16,-150.79 -26.91,-157.68 -13.71,-3.25 -3.94,-1.76 -19.31,13.84 -7.77,7.89 3.77,3.7 -12.92,12.04l-10.65 -35.62c-0.49,-1.43 -1.23,-3.8 -2.09,-5.59 -65.64,12.11 -127.78,-3 -149.14,59.39 -26.68,77.96 -23.53,41.36 -44.77,90.52 -8.69,20.13 -7.3,32.51 -17.03,50.54 -19.81,36.74 -10.66,-5.25 -18.93,48.17 -4.26,27.54 -5.41,29.5 -21.31,44.96 -43.78,-39.18 21.54,-67.44 -76.95,-192.82 -37.18,-47.33 -32.55,-29.07 -84.32,-52.04 -149.02,-66.12 -168.88,-126.85 -287.93,-120.69 -85.4,4.42 -156.94,30.76 -240.34,40.24l35.6 124.85c12.91,34.13 40.97,85.69 36.09,123.13 -12.75,-8.5 -66.44,-17.09 -119.77,-66.71 -51.39,-47.81 -53.97,-21.65 -111.43,-39.39 -31.54,-9.75 -15.15,-28.15 -29.58,-0.47l-63.79 129c-8.36,15.98 -32.12,33.59 -45.49,49.07 -16.88,19.54 -26.24,43.17 -55.04,51.01 -34.95,-186.39 -15.4,-210.74 -140.74,-226.31 -69.14,-8.58 -44.33,-21.37 -90.28,-35.37 0.1,102.58 57.03,318.76 3.25,394.06 -19.82,-36.59 -31.34,-66.99 -59.17,-96.53 -50.55,-53.65 -39.24,-40.98 -83.05,-52.03 -42.27,-10.66 -14.1,-54.8 -29.62,-114.29 -24.44,0.04 -3.68,-2.89 -17.9,7.92 -10.05,7.63 9.13,3.08 -15.33,15.53 -44.29,-32.43 -16.85,-59.64 -9.87,-117.64l-13.45 3.25c-221.87,41 -117.73,57.67 -175.65,129.33 -20.45,25.3 -20.63,32.47 -33.03,66.57l-143.33 -14.84c-57.33,-7.75 -102.21,-15.99 -158.3,-24.95 -48.07,50.14 -10.34,61.59 5.56,104.34 -15.55,17.83 -22.01,8.32 -26.52,35.26 -7.78,46.38 10.46,12.36 4.37,48.09 -17.35,16.01 -32.81,16.2 -43.57,30.02 -7.73,9.94 -11.76,34.3 -18.12,48.39 -32.43,-1.07 -3.4,4.52 -30.06,-9.34 -111.06,-57.78 -128.27,-125.19 -139.46,-138.26 -26.88,6.08 -14.49,12.75 -47.1,33.39 -19.21,13.56 -9.85,36.69 -55.28,102.35 -12.69,18.34 -22.47,30.71 -32.2,50.6 -10.58,21.65 -15.16,48.65 -22.26,64.33l-35.11 -421.33c-2.58,-28.99 -11.59,-48.97 -17.01,-76.04 -9.61,-47.96 -26.22,-105.56 -85.28,-100.66 -38.92,-6.19 -12.37,-11.17 -35.75,-7.12 -17.95,3.11 -15.62,2.66 -25.12,15.42 6.82,56.01 13.5,53.36 1.15,114.12l-20.93 3.68c-0.88,0.22 -3.91,2.92 -4.56,1.49 -0.66,-1.47 -3.23,0.81 -4.65,1.63 1.21,97.55 9.68,212.85 -8.45,306.72 -10.94,56.64 -19.3,77.77 -15.08,142.29 11.52,176.31 45.31,137.74 -143.57,150.74 -7.99,-20.25 -2.86,-22.09 -3.2,-48.48l-44.39 98.44 -65.46 -39.83c-48.74,-37.46 -70.75,-38.91 -86.29,-48.98l-23.14 -22.32c63.44,-38.06 121.74,-159.41 150.66,-236.64 32.91,-87.83 51.97,-221.38 64.26,-321.89l-35.43 3.61c15.77,-58.37 35.27,-176.24 73.77,-208.04 -5.17,-6.77 12.98,-9.62 -16.18,0.16 -14.33,19.84 -31.78,26.78 -59.68,35.19 -36.54,11.03 -49.11,20.45 -80.2,30.77 -124.78,41.45 -45.56,-8.95 -119.98,96.85l-42.35 66.37c-23.29,26.96 -33.1,23.96 -47.09,62.16 -17.93,48.94 -64.54,111.21 -70.72,147.94l-61.57 -11.42c0.83,-0.09 2.8,-4.53 3.49,-3.3 0.67,1.21 2.85,-3.66 3.78,-4.77l26.6 -37.06c26.49,-49.58 25.06,-127.7 3.68,-163.6 -20.55,-34.51 -61.14,-64.88 -104.05,-52.28 -51.05,14.99 -47.76,39.6 -71.63,75.63 -17.56,-6.68 -60.59,-68.59 -87.04,-87.42 -12.09,-8.6 -4.31,-4.73 -17.76,-9.07l-9.38 -6.18c-0.45,-0.27 -2.62,0.36 -3.48,-0.44 -40.61,18.02 -75.31,71.07 -115.45,89.35 -61.51,28.01 -89.09,73.66 -133.21,67.94 -24.68,-36.15 -22.2,-105.31 -18.85,-160.58 1.78,-29.21 11.6,-59.44 12.81,-83.17 1.16,-22.79 -4.48,-24.57 -2.22,-36.25 5.21,-26.87 6.28,7.98 12.05,-22.47 0.6,-3.16 2.63,-3.53 2.67,-3.67l-13.17 -11.33c-60.84,-6.6 -199.73,-30.87 -251.44,7.65l-106.97 62.99c-29.52,14.85 -43.39,29.43 -67.4,41.94 -30.7,16 -46.33,16.21 -72.68,36.29l-63.83 45.11c-3.92,4.72 -21.18,45.48 -43.72,70.33 -22.98,-10.12 -37.25,-33.12 -64.17,-44.93 -31.48,-13.8 -61.78,-8.29 -87.97,-19.27 -75.5,-31.64 -148.67,-162.81 -296.75,-147.37 -33.3,3.47 -63.26,8.42 -91.15,20.08 -43.75,18.3 -52.96,11.94 -94.65,11.39l-11.76 7.44c29.23,23.83 9.1,74.65 10.92,119.48 1.73,42.85 1.04,31 -12.86,59.61 -13.93,28.66 -6.33,56.68 -12.02,61.81 -5.01,1.96 -78.75,-31.4 -87.38,-39.95 -31.75,-31.46 -0.97,-51.95 -61.77,-75.75 -2.73,15.99 -4.94,26.97 -7.84,40.91 -1.4,6.76 -2.9,14.15 -5.24,21.27 -7.73,23.46 -0.82,5.58 -6.84,15.47 -52.32,-38.81 -154.76,-74.82 -176.09,-90.96 -13.66,-10.34 -2.72,-5.46 -14.62,-12.97 -9.4,-7.25 -2.3,-11.05 -10.17,6.47l-4.06 81.95c-13.29,9.4 -4.56,2.97 -37.74,7.9 -6.03,18.86 -12.48,26.39 -18.62,43.98 -7.38,21.16 -5.96,35.95 -12.54,55.76 -12.46,37.46 -28.83,47.87 -56.14,72.22 -49.09,43.77 -97.07,78.14 -133.87,129.36 -7.31,-7.41 -82.51,-142.34 -80.46,-172.99 2.4,-35.85 64.81,-140.92 83.68,-177.02 -7.59,-17.94 -11.95,-10.28 -20.64,-27.19 11.02,-13.4 29.08,-37.94 35.24,-63.28 -80.46,3.61 -116.51,-20.17 -199.88,-15.18 -25.58,22.98 -7.89,24.23 -51.07,47.26 -65.1,34.73 2.66,20.21 -66.4,41.25 -2.6,0.79 -21.98,6.96 -22.04,6.97 -11.4,2.67 -20.4,2.25 -21.25,2.25 -22.88,0.03 -15.81,-2.66 -39.61,2.39 -40.31,8.58 -42.52,8.72 -71.17,-14.97 -46.77,-38.68 -56.15,-72.83 -117.3,-100.47 -54.33,-24.56 -128.04,-13.52 -195.91,-13.25l0 27.6c15.9,9.67 45.21,14.93 69.49,22.11 53.11,15.69 49.83,12.09 54.69,37.49 -44.41,38.16 -70.67,0.81 -124.17,-7.42 0,43.81 41.88,11.98 37.13,77.46 -42.39,15.68 -33.31,16.59 -62.64,-18.49 -20.45,-24.47 -29.2,-20.58 -42.45,-51.33 -14.08,14.42 -41.15,100.29 -44.45,117.43 61.57,-27.43 1.61,-54.06 71.65,-63.54 25.69,33.7 13.5,78.93 -17.36,98.56 -119.51,76.03 -195.03,-128.57 -197.12,-143.39l-15.87 15.03c-18.53,10.79 -36.83,31.94 -57.77,47.47l-65.45 45.59c-57.98,-52.02 -64.43,-135.05 -203.88,-132.58 -31.61,0.56 -109.93,18.84 -140.01,31.36 -23.54,9.8 -25.91,22.98 -60.14,12.44 -44.66,-13.75 -27.79,-21.69 -70.4,2.44 7.13,23.27 -10.17,16.31 50.68,26.42l-0.84 116.87c72.14,43.43 4.85,85.9 18.14,147.91 -27.34,-9.32 -34.19,-13.39 -55.18,-25.57 -39.66,-23 -4.14,2.69 -46.24,-0.37 -11.12,-0.81 -58.72,-15.44 -73.64,-12.17 -13.25,2.9 -13.29,10.96 -14.44,8.19 -0.5,-1.22 -2.26,2.14 -3.57,2.94 -7.71,26.79 -18.81,28.3 -24.07,53.18 -9.9,46.79 -13.46,76.05 -13.6,96.59l-4.77 -9.21c-6.11,-7.12 -11.93,-3.45 -3.64,-6.62 -7.84,-15.31 -39.47,-21.81 -58.11,2.1 -3.73,4.79 0.94,1.45 -5.51,7.07 -5.5,17.29 -21.9,12.71 -21.09,32.52 0.67,16.42 12.47,24.95 29.79,24.67 7.04,-2.61 4.17,-21.77 52.68,-32.1l11.54 -0.48c3.3,28.49 14.73,37.75 16.83,80.4 4.06,82.29 -23.57,84.46 -35.77,112.54 -8.67,19.97 -12.53,38.45 -19.57,54.32 -2.93,6.59 -5.14,11.68 -6.81,15.72l-26.29 -23.89c-34.85,-38.14 -64.99,-52.56 -73.46,-64.92l30.5 -43.51c32.03,-41.45 10.63,-28.1 37.75,-60.38 8.86,-10.54 19.46,-19.19 21.1,-30.63 -11.84,6.31 -21.27,18.8 -40.81,4.65 -14.5,-10.5 -12.64,-25.95 -7.52,-39.96 -11.97,5.54 -24.09,30.3 -30.75,41.79 -23.98,41.44 -28.14,28.39 -48.31,56.48 -17.32,24.12 -27.64,5.54 -48.14,12.11 -13.67,4.38 -9.93,8.47 -22.68,10.91l-13.07 -14.47c-9.12,7.73 -7.47,24.45 -8,38.52 -6.79,5.42 -8.08,4.62 -17.33,9.36 -2.54,21.8 -10.46,56.9 -11.17,75.84 -1.03,27.28 4.8,57.12 7.26,84.64 4.03,45.2 17.61,101.67 37.02,140.42 -14.04,6.13 -67.83,12.17 -85.81,13.65l-4.8 -22.8 -9.54 26.4c-26.02,2.2 -53.53,-14.36 -79.39,-3.76 -4.2,11.72 5.46,22 -10.81,25.81 -13.9,3.26 -4.27,-8.08 -26.88,20.75 -15.22,19.4 -33.45,40.43 -59.5,12.82l9.56 -11.96 23.93 4.52c11.78,-16.87 25.5,-25.17 30.22,-44.74 -11.64,-6.8 -14.87,-13.51 -28.43,-16.72 -18.43,16.31 -45.19,74.37 -77.37,35.07l7.89 -11.98 23.78 4.48c11.86,-16.64 25.62,-25.21 30.14,-45.03l-14.77 -11.13 8.21 -12.61c12.51,4.4 5.4,7.08 23.71,10.12l17.37 -23.97c15.54,27.68 1.22,14.95 -4.05,41.65 9.94,6.23 12.93,11.5 25.69,16.43 11.13,-6.11 37.04,-34.75 43.67,-56.81 8.88,-29.49 19.04,-45.38 14.91,-78.79 -13.15,-106.36 19.45,-107.93 41.42,-153.76 -8.07,-10.12 7.64,-0.96 -7.48,-3.48l-4.28 -0.08c-0.4,-0.02 -1.47,0.29 -2.2,0.18 1.93,-17.64 2.78,-43.6 28.99,-36.76 19.32,35.06 -6.94,28.08 8.81,55.79 3.17,-9.13 2.61,-21.61 10.04,-30.4 13.98,-16.5 -3.53,11.26 17.77,-22.66 2.82,-4.47 0.62,-1.65 4.75,-5.82 3.2,-3.23 1.43,-1.08 5.64,-4.59 26.24,-21.91 14.64,-19.47 10.22,-35.25 -8.34,-19.14 -0.51,-9.73 1.55,-19.75 2.1,-10.3 -1.56,-7.76 -6.52,-16.41 -7.94,-13.86 0.44,-27.27 -16.8,-37.96 -25.83,-16.02 -18,-18.21 -32.42,-25.04 -46.58,-22.04 -93.88,33.19 -77.7,74.03 7,17.67 37.93,45.44 55.22,56.36 -11,22.24 -14.91,21.05 -30.87,25.3 -31.61,8.4 -20.93,15.51 -27.5,26.54 -8.22,0.9 -8.46,1.96 -13.39,1.31l-30.4 -1.06c-12.59,2.25 -30.06,8.02 -41.31,12.84 -51.81,22.17 -65.93,1.25 -94.88,13.96 0.81,0.48 2,0.77 2.65,0.97l18.64 5.9c5.27,2.99 9.03,8.45 9.08,16.84 0.08,12.81 -9.37,28.39 -22.78,28.98 -15.57,15.45 -6.81,14.82 -13.69,29.42 -10.05,-13.69 0.75,-18.71 -20.31,-39.49 -16.55,1 -9.35,2.05 -22.39,6.14l4.69 16.78c-2.47,11.58 8.79,41.91 13.09,53.61 4.43,12.02 7.05,14.1 12.01,22.07 6.97,11.21 4.31,12.96 8.66,24.9 2.06,5.62 52.75,68.9 42.09,94.39 -9.85,23.55 -49.67,-0.8 -76.32,16.53 22.38,4.71 42.08,1.25 60.41,5.33 27.77,61.25 -15.38,57.68 -16.64,137.17 -0.45,28.82 -23.94,106.6 -30.67,144.24 -9.23,51.52 -12.04,104.18 -20.57,155.85 -18.42,111.62 -51.19,87.88 -73.52,99.13 3.55,14.63 21.72,15.09 34.55,19.56 0.67,37.63 -36.65,9.44 -35.16,53.46l32.13 8.81c23.89,2.2 35.64,7.21 50.83,-7.19 12.82,28.8 14.26,56.22 55.67,54.66 4.15,-8.13 6.47,-9.11 8.13,-21.14 6.95,-50.59 3.27,-15.62 16.37,-45.47l26.59 -60.63c4,-7.99 5.63,-12.94 9.41,-20.56 3.52,-7.1 5.54,-10.24 9.16,-18.22 35.34,-77.8 24.48,-39.75 53.62,-125.8 11.32,-33.44 3.55,-32.11 23.26,-40.08l0.67 168.78c-26.9,0 -63.4,-5.79 -68.3,14.42 24.29,15.08 24.01,-5.99 73.73,16.94l1.77 21.68c-0.81,8.89 -1.32,7.11 -1.41,17.94 -0.4,50.22 -20.78,45.17 -60.14,48.85 -33.93,3.17 -20.24,24.29 1.42,41.47 30.7,24.34 72.06,12.61 94.52,8.08 13.55,-2.74 34.53,2.75 52.39,3.26 -3.63,20.75 -13.6,13.43 -8.36,39.64 16.25,6.98 30.12,7.4 48.63,3.96 34.37,-6.4 26.72,-23.82 31.72,-50.1 2.14,-11.24 3.76,-9.9 6.68,-20.94 4.9,-18.54 0.68,-24.82 2,-45.02 14.84,2.25 37.15,3.02 55.43,3.26 32.39,0.42 26.69,-3.76 49.23,-9.47 20.32,-5.15 22.59,7.63 48.79,8.1 21.44,0.4 32.34,-4.48 49.24,-11.13l-4.27 -40.11c-4.04,-24.4 -11.92,-4.51 -17.48,-35.69 -1.85,-10.42 -3.53,-1.27 0.6,-13.25 0.24,-0.7 0.83,-1.69 1.11,-2.3l4.2 -6.36c-43.31,-45.28 -25.44,-72.48 -23.99,-114.86 0.61,-17.65 -2.12,-33.59 -0.07,-51.06 2.17,-18.45 7.33,-27.35 4.85,-47.04 -2.37,-18.79 -6.51,-25.73 -5.06,-47.64 0.76,-11.44 2.44,-30.22 6.89,-47.04 -6.27,53.24 20.8,96.46 69.05,109.14 0.92,-0.99 1.87,-1.85 2.82,-2.61 2.24,17.34 3.41,34.88 4.37,48.99l21.87 103.42c5.22,20.3 16.92,24.3 9.13,46 -12.6,35.08 3.7,31.43 -1.35,49.8 9.2,11.17 3.14,6.1 5.52,27.45 2.77,24.87 21.15,28.49 52.78,29.73 0.38,13.21 -8.81,26.74 11.9,36.03 16.78,7.52 28.72,-3.22 46.8,-5.61 3.05,-9.2 20.22,-10.25 27.56,-16.74l2.73 -2.44c-1.9,109.58 -2.51,218.54 3.57,319.19 19.09,3.95 19.61,5.97 36.04,11.92 -13.85,56.71 -3.41,73.87 34.62,107.09 45.49,-5.26 91.95,-48.23 114.72,-69.8l21.39 -19.74c48.39,-45.93 63.96,-55.53 59.33,-89.55l-60.55 -9.55c7.12,-16.19 43.95,-13.43 57.21,-14.43 1.1,-22.19 -16.41,-23.86 -30.75,-33.4 -14.7,-9.79 -36.66,-19.94 -42.06,-39.57l4.45 -77.62 7.63 -0.18c6.34,-11.91 13.54,-23.93 20.77,-32.73 0.96,14.18 -2.58,13.18 12.7,16.26 11.62,2.35 15.95,-1.69 18.74,-11.4 3.33,-11.55 -1.14,-13.32 6.33,-24.93 7.87,-12.23 7.43,3.32 7.52,-16.61 0.08,-15.43 -3.7,-39.55 -4.85,-56.04 -1.58,-22.64 2.9,-35.13 3.1,-54.14 -15.24,-6.19 -5.18,1.15 -12.42,-9.2 -10.09,-14.43 -8.84,-39.32 -11.37,-57.47 -3.81,-27.32 -11.49,-49.71 -16.53,-72.85l-0.63 -2.99c0.32,-8.92 0.73,-17.8 1.6,-26.35 37.53,27.86 74.92,192.31 91.26,241.66 10.34,31.26 32.15,95.38 45.74,118.16 12.34,20.69 24.83,30.53 28.51,50.75 4.46,24.41 -13.86,45.12 -4.06,66.86 17.96,22.5 33.92,4.58 63.3,24.21 19.21,13.32 28.1,17.15 59.55,14.16 3.4,67.06 7.19,29.41 12.4,62.99 -14.25,9.74 -19.62,12.31 -36.36,21.94 -20.09,11.54 -21.32,4.27 -30.65,31.87 -16.53,48.87 37.74,46 71.64,46.77 26.11,50.66 0.3,44.55 22.9,59.8 31.29,14.44 105.59,7.08 138.15,-9.1 15.05,-13.62 14.46,-85.28 44.76,-101.04 30.5,-36.51 22.97,-124.28 21.93,-179.44 -2.66,-140.49 -30.07,-77.89 -18.87,-190.48 10.83,-109.02 -3.08,-224.82 13.98,-278.14 13.5,-42.16 3.56,-57.57 33.39,-73.88 42.99,71.99 97.05,222.43 114.78,304.56 -13.91,21.05 -17.55,6.28 -25.47,35.99l-14.28 311.04c-0.67,40.18 13.8,75.07 19.32,110.98 44.54,17.94 7.2,-12.29 49.31,30.51 3.71,3.78 8.8,8.65 15.9,11.45 33.16,13.1 73.98,0.68 98.14,-7.5 7.38,-83.26 -38.36,10.35 -49.41,-152.2 -1.73,-25.42 -3.32,-77.5 1.58,-101.44 8.43,-41.22 -2.77,-13.37 18,-31.75 19.4,-17.17 18.76,-5.32 27.88,-23.5 -13.87,-8.6 -23.7,-5.22 -46.45,-5.08 -1.87,-37.03 35.78,-180.46 16.91,-260.43 -13.87,-58.76 -26.55,-74.24 -47.03,-171.68 -4.06,-19.34 -8.99,-32.56 -4.03,-52.2 4.91,-19.43 0.94,-7.86 8.45,-18.31 35.1,27.2 43.41,125.49 62.93,160.48 9.76,17.51 11.15,8.21 20.48,31.24l45.98 123.75c14.5,46.75 22.64,146.63 40.05,178.59 61.88,113.68 21.94,32.72 46.74,116.88 13.23,44.88 58.07,41.91 68.42,-30.7 6.15,-43.12 -50.24,-292.62 -60.11,-343.27 -18.32,-93.97 -14.37,8.72 -24.91,-128.73 -1.9,-24.76 -1.09,-25.34 6.21,-35.44 9.91,23.05 22.73,28.46 43.07,40.54 2.18,82.47 40.31,181.24 59.24,265.37l33.42 203.11c6.66,32.16 13.24,9.76 16.85,53.31 -7.92,37.65 -6.16,40.73 26.29,53.11 54.58,20.8 4.73,12.02 43.68,42.21 39.47,14.12 74.32,2.26 116.68,-3.94l17.55 -6.6c5.48,-72.44 -23.63,-56.26 -38.4,-106.13 18.63,-11.56 31.29,-20.8 36.84,-44.9 -18.85,-17.72 -53.49,0.01 -57.94,-153.65 -24.91,1.1 -40.79,8.03 -70.7,6.63l-1.19 -29.74 41.36 -3.42c2.08,-92.76 23.79,-42.52 5.16,-113.04 -10.97,-41.52 -10.19,-76.37 -18.07,-119.7 -5.54,-30.41 -25.58,-62.41 -35.97,-97.86 -31.12,-106.29 38.41,-100.27 -28.24,-224.56 -14.9,-27.79 -12.51,-73.24 -25.45,-108.88 -10.2,-28.09 -74.15,-181.44 -72.09,-189.26 15.42,-24.16 68.3,-28.39 83.42,-60.54 14.64,-31.12 4.27,-103.02 38.9,-171.94 14.48,-28.82 18.68,-14.3 28.83,-48.17 14.87,-49.6 -9.99,-90.52 -6.45,-139.04 21.31,29.15 21.25,96.09 16.52,140.26 -11.15,104.13 -31.43,102.71 -40.34,127.72 -14.15,39.68 11.05,-0.85 -2.36,64.84 -8.02,39.26 -44.18,199.92 -37.97,216.06 9.79,25.44 13.62,-13.98 33.99,51.34 10.57,33.89 23.33,22.18 35.17,44.04 3.18,5.87 13.82,114.17 22.55,142.12 14.54,46.54 34.08,71.39 39.43,123.8 5.93,58.15 -13.18,101.45 24.91,136.95 40.44,37.7 15.35,25.91 54.56,108.96 18.65,39.5 34.8,71.04 51.88,110.46 17.83,41.14 31.72,73.5 53.76,110.94 26.83,45.57 58.69,73.69 74.99,96.07 -22,30.62 -23.27,5.01 -25.18,56.96 19.78,8.11 3.06,-4.69 26.25,22.29 33.31,38.76 -16.63,98.78 12.93,134.82l20.05 10.95c28.56,9.22 62.38,2.61 91.66,-0.86 49.86,-38.53 21.27,-34.1 30.84,-105.85 6.43,-48.21 23.13,-148.68 2.22,-183.08 -15.98,-26.29 -20.19,-16.46 -41.88,-32.88 -26.42,-19.99 -29.93,-71.98 -40.89,-109.87 -10.39,-35.98 -27.21,-76.39 -35.09,-106.44 -10.51,-40.12 -7.29,-93.85 -26.03,-123.62 -22.12,-35.15 -50.27,-6.65 -46.78,-181.45 0.37,-18.66 -0.87,-29.06 8.42,-48.42 9.5,-19.78 2.99,-5.86 8.5,-13.04 66.34,41.42 214.86,252.46 267.57,324.51 14.52,19.86 26.98,37.59 43.7,58.35 56.78,70.52 47.57,46.98 28.02,100.22 -3.91,10.65 -8.1,32.6 -11.81,41.26 -8.61,20.12 0.09,6.27 -19.17,22.27 -1.16,0.96 -2.84,2.1 -4,3.05 -85.95,70.8 -41.59,55.41 -54.38,118.72 -5.81,28.77 -25.75,51.58 -30.29,80.11l27.93 19.32 125.72 38.68c32.12,-28.23 26.31,-39.82 31.67,-85.2 26.74,-14.66 4.62,11.72 45.61,-19.08 16.69,-12.54 -5.03,-3.33 18.57,-12.83 7.89,23.14 2.09,8.4 4.51,32.37 1.71,16.93 -2.94,20.64 8.75,33.11 13.68,14.58 109.13,28.58 143.79,-33.06 11.36,-20.2 -0.05,-10.14 18.55,-27.93 -0.37,-27.61 8.15,-69.69 16.82,-92.77 15.37,-40.87 52.16,-68.86 42.03,-121.65 -5.39,-28.01 -10.75,-26.56 -25.76,-34.83 -61.54,-33.87 -38.57,-30.1 -70.62,-49.17 8.74,-38.52 41.71,-101.48 59.1,-143.75 10.68,-25.98 18.08,-49.12 27.65,-73.66l124.13 -283.28c5.28,-11.38 9.36,-20.23 15.35,-33.5l27.45 -36.24c9.95,38.4 5.87,74.39 15.13,103.1 29.32,90.82 -42.58,93.32 6.25,169.72 43.57,68.16 40.34,143.54 48.35,182.16 24.5,118.13 38.59,72.53 32.34,182.8 -2.24,39.59 9.2,66.62 7.88,108.9 -10.79,19.28 -11.18,8.13 -21.21,23.73 -10.14,15.76 -6.71,28.84 -12.25,44.07 -117.69,48.72 -110.37,29.33 -117.98,116.85 25.06,13.05 42.53,33.08 68.63,49.39 43.12,26.93 45.09,15.88 81.27,29.6 55.38,-5.17 134.88,-17.09 186.04,-39.55l9.44 -3.97c5.26,-1.42 11.9,-1.35 15.07,-1.38 12.64,-0.13 17.44,2.52 35.66,0.78l44.9 -10.99c-2.35,-70.43 -32.07,-17.83 -51.63,-72.56 27.61,-21.08 36.33,-4.66 46.82,-27.2 -17.53,-11.12 -29.8,-10.76 -57.73,-11.32l36.28 -208.18c6.91,-35.7 20.67,-58.16 31.31,-93.92 8.7,-29.23 7.65,-77.58 19.56,-99.78 21.79,16.18 26.06,188.06 30.43,236.56 4.16,46.07 8.45,38.72 37.6,61.06 -6.86,30.26 -13.43,18.79 -16.26,68.7 -1.84,32.45 15.68,10.74 -9.54,29.05 -15.93,11.57 -13.47,-1.51 -34.71,11.03 1.93,32.76 7.19,22.09 1.72,49.62 -2.15,10.85 -8.41,43.88 -11.25,52.37 16.82,17.81 18.6,15.93 49.92,19.01 96.39,22.07 39.15,-3.86 118.33,-48.52 39.88,-22.49 16.75,-42.06 61.16,-25.87l-1.99 -29.2c-4.99,-5.7 -8.76,7.05 -5.47,-22.01 4.14,-36.61 43.71,-44.1 48.03,-56.6 -1.45,-62.22 -22.97,-24.45 -38.67,-73.23 -9.24,-28.7 -20.65,-62.45 -18.25,-93.34 5.52,-70.95 -1.54,-155.46 5.59,-221.14 5.34,-49.18 9.03,-45.75 2.89,-96.78 -6.69,-55.59 20.46,-26.94 24.13,-86.61 4.43,-72.06 -5.96,-54.07 35.18,-128.69 3.44,-6.25 5.39,-11.19 9.74,-17.07l22.55 -22.69c-0.62,93.82 -11.91,107.03 4.03,205.59 5.8,35.92 -0.29,67.98 6.12,105.07l36.52 172.2c9.35,44.26 3.32,64.9 4.86,107.42 1.23,33.97 11.45,55.78 19.82,86.54 6.86,25.21 11.88,63.34 27.28,82.32l-36.4 14.41c-0.56,41.57 15.47,40.19 47.66,52.62 -6.59,69.76 -47.84,25.42 -50.66,89.95 -0.82,18.78 2.54,33.75 5.61,42.27 59.09,-2.63 128.33,21.8 170.01,-5.7 31.51,-20.8 11.6,-18.27 28.28,-33.64 21.9,-20.18 17.15,2.8 39.89,-21.18 18.1,-19.09 2.6,-17.72 19.89,-40.62 18.88,-24.99 62.02,-25.82 93.41,-33.66 41.56,-61.02 3.13,-24.96 3.98,-75.8 2.96,-176.42 25.1,-119.36 37.27,-191.76 6.1,-36.33 9.96,-69.72 15.34,-105.07 20.53,-134.96 49.3,-98.04 66.08,-180.54 9.74,-47.95 35.3,-144.65 88.13,-166.31 49.44,21.23 130.12,162.74 107.22,219.51 -35.15,87.1 -36.62,140.47 -70.13,188.53 -19.21,27.56 -11.77,27.07 -21.02,59.09 -7.44,25.79 -56.59,20.47 -95.05,107.13l16.42 35.24c24.59,1.93 13.57,-8.07 32.39,-8.05 12.93,47.44 -4.23,77.76 3.89,127.75 13,13.67 13.99,22.88 29.42,39.02 12.26,12.8 22.1,20.55 39.48,29.46 48.36,24.82 70.08,3.59 61.48,-50.66 4.84,-41.11 -12.75,-52.97 0.15,-75.46 10.57,-18.4 41.02,-24.01 98.71,-146.59l18.15 -27.97c0.6,-0.69 2.1,-2.31 3.27,-3.34 24.16,57.21 60.77,221.52 54.83,283.14l16.72 18.16c0.92,0.96 2.44,2.3 3.34,3.27 0.89,0.95 2.4,2.28 3.25,3.27 37.58,43.21 -10.6,47.35 31.43,65.6 12.46,5.41 40.15,2.85 53.56,2.28l52.95 -13.5c19.94,-99.25 -56.1,-86.58 -19.32,-138.6 12.73,-18.02 1.42,4.4 11.46,-15.25 7.91,-15.47 6.84,-23.11 3.98,-40.65l-51.04 -7.63c-19.18,-73.45 -1.44,-134.66 -21.1,-267.92 -14.26,-96.61 -60.35,-128.17 -31.99,-226.32 13.62,-47.16 14.75,-70.84 35.95,-114.46 18.01,-37.05 33.05,-58.77 43.79,-105.69l8.02 -45.08c11.88,-44.49 28.82,-23.65 47.55,-125.51l14.14 -45.76c5.41,-9.68 5.3,-9.31 10.33,-15.17 38.81,95.05 30.58,227.57 34.91,342.88 2.34,62.21 6.22,122.72 6.39,183.59 0.37,138.64 -38.59,431.57 -30.64,537.79 2.99,39.98 16.41,40.65 23.76,69.95 8.42,33.58 0.38,49.94 36.89,61.14 40.12,12.31 38.54,-7.16 70.73,22.87 26.33,24.57 32.86,28.93 72.8,15 4.81,-30.75 17.22,-15.32 -0.61,-53.16 -6.22,-13.2 -9.1,-7.32 -11.16,-23.51 -3.23,-25.6 9.41,-20.43 11.47,-21.57l4.64 -37.52c27.07,-10.87 9.43,33.09 100.83,-77.83 44.58,-54.12 98.69,-96.29 160.53,-132.87 45.22,-26.76 39.91,-32.1 70.98,-64.43 8.2,-8.53 14.76,-16.32 21.81,-24.48l34.61 -26.6c-5.04,38.2 -10.05,105.04 -31.17,129.31 -80.24,92.2 -27.1,26.39 -89.95,61.03 4.63,12.51 31.85,11.65 22.93,86.1 -8.65,72.23 -57.43,84.81 0.77,110.6 58.26,25.81 49.39,-10.98 102.12,38.83 39.07,36.92 111.06,35.58 149.98,6.81 4.28,-31.02 -1.33,-42.93 -18.38,-57.46 -9.88,-8.42 -44.03,-32.3 -51.73,-37.22 39.22,-48.47 10.87,-98.04 31.57,-122.25l28.1 -106.1c9.71,-25.38 33.81,-60.35 47.87,-88.41 31.17,-62.21 47.83,-134.31 69.35,-202.92 18.51,-59.02 -3.23,-281.23 -2.15,-369.67 0.34,-28.56 6.23,-35.69 2.65,-56.37l-7.34 -39.18c1.72,-17.07 -2.52,-3.33 5.06,-15 34.84,20.07 -0.45,29.84 33.99,60.61l13.6 -48.61 68.39 9.17c26.29,95.34 0,85.4 -3.68,131.24 -3.95,49.27 13.87,89.69 14.33,142.27 0.42,47.87 -13.57,98.37 16.73,135.14 10.2,12.36 32.59,29.33 44.85,23.34 27.18,-13.26 -10.16,-11.71 6,-39.13l-31.34 -15.14c0.48,-26.71 1.54,-32.45 13.89,-49.63 20.94,22.45 -4.3,36.75 33.99,41.2 7.7,-22.09 -9.41,-40.52 -9.43,-109.7 -0.01,-59.55 21.28,-42.26 24.84,-108.36 1.45,-27.05 14.05,-73.8 20.8,-108.28 4.5,-22.97 9.2,-15.95 35.12,-64.97 10.19,-19.25 -1.18,-11.04 17.06,-17.74 13.98,35.23 -20.71,8.28 36.71,43.94 -0.45,61.98 -23.76,163.65 -31.13,228.65 -2.92,25.72 2.5,36.55 -4.28,57.16 -11.08,33.69 -10.06,-2.86 -13.31,44.78 -2.07,30.24 1.32,24.97 -14.04,49.64 -35.85,57.55 10.4,23.41 -22.99,91.49 -8.27,16.88 -13.77,23.89 -19.02,42.43l-56.22 203.44c-26.5,57.02 -22.01,37.69 -19.94,107.51l-13.5 -6.11c-32.49,-18.2 -14.95,-15.55 -35.14,-21.12 -19.2,-5.28 -52.58,-1.86 -72.3,1 -6.63,9.6 -12.31,14.94 -16.39,28.03 32.51,49.57 44.54,32.27 68.56,61.19 -9.56,41.34 -101.62,80.12 -64.62,140.91 21.27,34.94 75.75,35.41 107.79,2.24 9.85,-10.19 15.44,-22.57 29.68,-30.09 25.53,-26.82 46.3,24.15 82.97,-48.63 9.49,-18.84 29.99,-89.69 41.15,-94.3l19.52 6.02c41.73,36.94 -4.02,54.45 -12.2,70.34 -11.15,21.66 1.02,39.86 6.59,82.95l4.23 23.88c3.25,14.07 107.54,84.09 220.71,22.56 1.74,-21.79 -12.03,-55 -20.18,-74.77l-36.57 -70.36c-6.52,-9.91 -1.56,0.13 -7.58,-12.72 -20.34,-43.38 50.05,-96.9 56.2,-106.42 -22.89,-45.25 -11.84,-34.7 8.25,-123.46 2.85,-12.59 14.47,-51.79 13.95,-61.4 -1.86,-34.51 -27.09,-16.12 -21.4,-47.96 1.28,-0.57 29.5,-8.19 29.29,10.4l41.21 -108.42c1.38,2.08 4.32,-2.98 6.17,-3.13 14.8,-1.22 3.57,-2.47 21.77,2.73 -27.28,-39.44 13.22,-15.18 21.57,-69.36 4.56,-29.54 14.73,-63.77 38.42,-75.99 15.81,11.56 36.9,61.66 44.65,78.35 23.35,50.28 11.67,60.09 0.98,105.87 41.15,55.45 40.6,23.72 32.79,57.68 -36.68,-1.39 -15.11,-21.08 -51.57,-30.47 -12.77,40.96 -18.71,35.03 2.59,67.98 -9.68,7.46 1.5,0.32 -14.27,8.96 -37.4,20.5 11.87,-9.34 -9.69,4.63l-21.56 161.12 -72.4 0.14c2.04,13.49 8.2,35.78 9.91,51.6l-4.16 60.32c-1.81,25.95 -10.34,12.57 -12.1,32.4 -3.1,35.09 21.01,-24.39 5.55,115.91 -3.61,32.79 7.09,104.41 34.7,113.94 18.45,6.37 32.52,-8.49 32.52,-8.49 49.54,-31.14 -26.34,10.03 15.27,-10.09 26.88,39.22 1.82,67.32 44.27,85.24 37.76,15.93 74.55,14.43 114.4,2.09 8.71,-83.48 -29.35,-66.5 -39.16,-110.35 -6.98,-31.2 1.04,-118.8 9.74,-141.41 10.11,-26.27 16.24,-30.7 20.47,-53.8 19.8,-108.39 -2.96,-52.33 50.36,-139.41l17.5 -25.66 33.9 43.38c9.83,18.85 14.75,38.41 17.6,54.24l-31.19 14.5c0.6,23.63 12.2,28.58 -2.46,62.07 -20.99,47.97 49.56,27.37 55.65,55.67l-1.95 73.85c46.34,18.24 82.03,-1.08 114.36,29.42 46.29,43.66 62.79,20.04 98.16,51.55 37.18,33.14 50.26,34.91 110.33,32.58 50.35,-1.95 91.54,-6.85 125.67,-24.67l-1.4 -52.78c-19.09,-13.48 -44.32,-24.02 -65.25,-43.14 -39.05,-35.69 -17.32,-30.08 -28.18,-67.91 56.67,-10.22 58.76,-26.82 77.07,-76.71 6.92,-45.38 33.15,-114.26 46.5,-166.56 15.76,-61.77 25.59,-119 43.53,-179.94 14.61,-49.59 87.26,-304.55 107.95,-334.62l7.12 14.88c46.67,111.81 53.84,161.37 9.97,260.52 -20,45.19 -9.75,104.76 -27.5,150.35 -9.05,23.26 -24.96,134.79 -16.58,153.36 -22.63,10.93 -22.51,0.29 -42.55,20.4 2.71,34.51 2.02,11.13 19.64,40.79 -5.61,21.57 -15.01,28.7 -33.26,45.6 -6.46,5.98 -16.73,15.89 -21.7,19.52l-28.47 14.35c-1.36,0.56 -3.85,1.26 -5.67,2.12 5.16,32.43 26.06,61.8 43.24,75.89 31.46,25.81 65.06,10.89 83.59,29.04 73.17,14.15 71.67,47.34 167.57,33.39 12.33,-35.05 21.72,-33.33 34.84,-61.48 10.58,-52.84 -1.61,-41.36 -15.59,-68.82 -10.67,-20.96 -6.7,-104.66 -1.53,-93.11 0.02,0.04 12.77,-4.32 14.06,-23.88 2.23,-33.92 -20.87,-8.59 6.2,-126.61 11.11,-48.42 29.74,-96 45.7,-143.11 100.07,-295.3 48.3,-522.58 -31.8,-814.41 -33.81,-123.21 -3.59,-108.21 24.44,-132.72 -4.54,-38.45 -19.25,-49.38 -54.95,-57.24l-13.6 42.08 -20.41 -0.57c-22.11,-54.74 26.37,-49.97 20.87,-104.83 -4.23,-42.14 -24.56,-77.24 -35.18,-110.35 -13.74,-42.86 -8.2,-78.87 -15.58,-125.68 -6.85,-43.42 -20.46,-76.86 -27.35,-118.97 33.3,12.54 10.56,9.36 50.46,12.49 13.99,42.71 17.94,28.17 57.91,45.07 35.74,15.11 44.73,20.64 87.01,22.4 4.45,52.4 21.73,61.7 32.15,89.95 44.84,121.51 27.38,98.31 -37.1,149.29l6.39 1.8c4.08,0.47 11.47,0.68 11.86,0.72 16.84,1.89 11.21,0.46 28.07,8.96l4.62 95.67c43.65,1.66 2.73,-6.98 51.39,-22.33 1.98,18.36 1.79,67.12 16.07,75.67 18.75,-9.5 9.64,-18.96 12.37,-47.56 1.35,1.64 2.34,2.5 2.76,5.73l4.77 11.51c0.6,1.82 1.16,3.87 1.76,5.85 0.67,2.2 2.34,9.41 2.86,11.38 0.43,1.64 1.02,4.15 1.35,5.46 0.33,1.29 0.41,3.79 1.32,5.41 21.45,-14.62 33.68,-24.2 47.59,-51.39 43.89,52.83 -52.73,77.31 -29.76,305.9 17.82,177.23 32.8,123.04 27.04,335.13 -1.66,61.11 -1.41,106.55 -22.97,158.12 -32.36,77.4 -14.3,74.2 -31.46,153.02 -10.12,46.5 -25.55,91.48 -33.21,146.4 -5.09,36.48 -2.58,86.49 -22.86,115.49 -14.55,20.8 5.66,6.06 -24.97,18.49 0.4,38.2 9.4,63.3 6.23,108.8 -2.3,33.13 -9.9,81.6 -9.74,112.61 0.2,40.06 -0.69,8.83 15.13,33.39 15.01,23.32 6.04,26.87 12.72,50.09 5.61,19.5 14.33,27.62 37.67,22.9 30.69,-6.2 23.58,-4.18 25.51,-32.67 14.53,17.67 29.01,41.84 41.74,65.76l110.89 2.53c15.49,-16.09 14.88,-20.94 28.07,-36.25 28.99,-33.65 18.18,-11.36 31.7,-39.84 -37.98,-13.47 -29.28,-13.42 -41.53,-49.92 -45.1,-134.42 -89.66,-102.82 -43.78,-201.84 73.86,-159.41 69.43,-319.61 90.16,-459.28 9.36,-63.07 27.06,-90.27 27.18,-161.01 0.13,-76.49 -6.14,-281.3 30.59,-333.31 36.72,20.5 76.55,196.66 91.32,242.05 14.55,44.72 30.21,75.78 36.76,125.62 4.85,36.84 4.76,34.43 23.16,59.37 21.53,29.2 7.81,32.8 24.85,63.11l60.06 103.23c27.32,41.53 7.86,144.09 0.31,219.37 -5.26,52.47 1.56,33.63 -24.27,66.16 -18.82,23.71 -11.01,31.43 -20.93,59.41 -5.45,15.39 -6.17,14.37 -16.16,25.41 -0.95,1.04 -2.49,2.42 -3.44,3.43 -0.94,0.99 -2.48,2.41 -3.4,3.36 -22.51,23.54 -5.17,-4.91 -13.82,15.49 24.73,18.11 13.58,0.56 24.23,27.19 -33.27,64.1 -39.22,14.39 -10.46,71.05 12.38,24.39 -4.75,10.65 17.16,30.03 14.76,13.06 49.26,15.17 55.39,33.65 36.33,4.82 60.32,26.4 94.06,11.28 41.63,-18.67 23.16,-45.86 23.91,-72.41 63.57,-2.5 100.5,-9.78 106.07,-59.75 4.79,-42.9 -7.39,-32.7 11.09,-55.16 -10.16,-36.91 22.6,-29.58 -2.73,-100.08 -15.66,-43.6 7.86,-51.64 18.35,-92.43l43.96 -207.83c4.25,-62.2 10.44,-157.46 37.15,-209.09 14.97,-28.95 31.96,-48.15 43.75,-79.02 12.03,-31.5 25.73,-57.71 39.1,-87.92 35.64,28.64 44.32,116.93 47.05,158.03 2.92,44.02 -5.4,57.96 -10.17,95.73 -4.99,39.56 5.39,57.45 9.74,94.52 4.13,35.11 -1.35,67.14 -0.14,102.6 2.93,85.16 38.83,139.81 -48.2,230.82l8.44 12.78c0.54,1.23 1.73,3.21 2.22,4.62 8.31,24.07 4.94,5.68 1.21,26.62 -11.16,62.65 -27.01,22.68 -35.12,71.71l-8.59 80.61c33.95,13.37 55.86,23.16 98.94,22.37 52.65,-0.97 57.23,-26.63 98.06,-16.29 45.3,11.48 33.84,19.87 98.93,19.03 36.73,-0.48 81.57,-2.03 111.4,-6.55 2.65,40.6 -5.84,53.22 4.02,90.47 5.87,22.19 9.13,19.49 13.42,42.07 10.05,52.82 -5.32,87.83 63.75,100.69 37.2,6.92 65.06,6.07 97.73,-7.95 10.53,-52.66 -9.5,-37.96 -16.8,-79.65 35.9,-1.03 78.05,-12.05 105.28,-6.56 45.16,9.12 128.27,32.69 189.95,-16.23 43.54,-34.53 71.05,-76.97 2.86,-83.34 -79.11,-7.4 -120.06,2.75 -120.86,-98.18 -0.18,-21.77 -1.2,-18.19 -2.83,-36.05l3.56 -43.56c99.91,-46.09 99.35,-3.75 148.16,-34.05 -9.85,-40.61 -83.2,-28.98 -137.25,-28.98l1.34 -339.17c39.61,16.01 24,13.35 46.75,80.54 58.56,172.92 36.73,96.47 107.75,252.82 7.28,16.04 11.34,22.34 18.41,36.62 7.59,15.33 10.85,25.28 18.9,41.32l53.43 121.85c26.35,59.99 18.94,-10.28 32.91,91.38 3.32,24.18 7.98,26.14 16.32,42.49 83.23,3.14 86.11,-51.96 111.88,-109.84 30.52,28.93 54.15,18.87 102.16,14.45l64.56 -17.71c2.99,-88.46 -72.01,-31.8 -70.66,-107.43 25.77,-8.98 62.3,-9.9 69.43,-39.31 -44.87,-22.59 -110.73,25.11 -147.74,-199.2 -3.18,-19.29 -5.97,-38.64 -8.51,-58.04 4.13,-5.3 8.33,-11.23 12.29,-17.96 10.47,-17.78 17.07,-33.15 25.53,-52.69 8.11,-18.72 15.78,-33.7 24.64,-52.46 18.62,-39.44 6.71,-33.84 25.91,-51.74 18.09,-16.86 9.01,-37.43 11.83,-65.04 2.54,-24.89 11.82,-36.69 18.73,-58.8 4.14,-13.27 9.2,-64.7 10.71,-67.49 5.62,-10.38 11.68,-4.82 16.7,-20.91 9.67,-31.02 11.49,-12.3 16.14,-24.38 2.95,-7.67 -14.23,-83.97 -18.03,-102.61 -6.37,-31.2 5.6,-11.95 -1.12,-30.79 -4.24,-11.88 -13.87,-11.21 -19.16,-60.66 -2.25,-20.98 -2.27,-52.77 7.84,-66.61 1.68,23.04 -10.12,42.48 -3.06,66.04 4.82,16.08 6.82,9.19 13.69,22.87 16.44,32.73 11.52,66.88 18.47,81.66 7.18,15.27 32.29,17.28 39.62,28.75 0.98,3.72 -29.4,76.54 -34.24,89.88 -6.14,16.92 -5.01,38.51 -12.08,51.71 -31.66,59.03 1.37,56.17 -13.42,106.65 -4.93,16.84 -14.45,32.03 -17.08,46.48 -3.74,20.58 -3.37,37.13 -8.58,56.85 -8.84,33.49 1.47,9.63 2.45,53.68l19.64 1.63 -0.56 14.12c-14.21,0.66 -21.74,-2.62 -33.58,-3.15 -2.11,72.97 -18.57,64.55 -27.52,72.97 2.64,11.44 8.65,15.83 17.5,21.32 -7.01,23.69 -20.84,16 -18.23,50.4l8.34 3.13c20.12,2.94 36.67,8.58 55.42,1.87 18.49,-14.34 -5.18,-10.17 20.74,-20.04 15.41,-5.88 16.25,-7.34 12.48,-25.22 1.71,-20.68 4.84,-10.04 8,-25.32l15.87 -96.46c8.99,-39.96 27.1,-86.87 28.13,-126.03 9.66,-5.74 15.75,-8.3 20.46,-19.25 3.47,4.8 3.85,5.07 2.95,16.83 -5,65.27 -3.12,16.51 -11.83,61.14 -4.69,24.05 -31.47,142.55 -28.55,163.02 4.91,34.48 26.21,35.9 32.5,14.58 11.78,-39.97 -7.19,-1.52 22.2,-55.51 8.26,-15.18 12.13,-62.61 19.02,-84.81l21.84 -58.77c4.43,-10.94 5.09,-6.52 9.73,-14.84 9.27,-16.62 13.21,-63.3 29.89,-76.22 3.57,4.96 1.68,-0.54 4.01,8.69 2.35,9.32 0.02,15.6 -1.91,24.79 -9.73,46.28 -15.75,53.63 -22.34,81.53 -8.96,37.98 8.92,106.1 8.03,123.68 -10.81,-0.06 -15.48,-1.67 -22.06,2.41 4.33,8.64 4.03,3.01 13.24,11.16 9.87,8.72 4.54,-4.5 8.55,15.08 2.33,11.37 1.57,36.1 0.75,48.18 -5.24,77.2 -26.97,32.74 -23.46,72.28 11.47,3.89 30.86,9.79 46.61,3.56 3.37,-1.33 5.79,-3.64 7.55,-5.44 20,-20.32 2.26,-5.96 23.42,-14.49 2.61,-17.06 9.49,-33.63 9.17,-52.71l-6.78 -147.72c-3.76,-14.11 -5.5,-7.09 -12.1,-17.09 8.42,-39 34.09,-110.45 54.51,-144.64 14.17,7.74 9.45,15.06 15.86,35.08 8.1,25.33 1.5,80.32 6.64,132.09 5.32,53.47 -7.7,23.75 -8.96,90.46 -0.49,26.2 -4.07,67.88 10.41,85.22 14.39,7.48 14.11,41.51 21.26,47.98 15.46,7.68 50.75,11.18 65.61,4.32 10.74,-7.24 -1.52,-4.34 10.88,-28.4 16.1,-0.37 41.87,0.99 34.02,-22.21 -4.43,-13.11 -5.01,-9.65 -14.55,-15.13 -7.95,-4.57 -10.5,-5.8 -17.27,-10.42 2.47,-15.95 4.27,1.93 5.89,-29.91 14.93,1.42 19.16,-0.4 28.28,-6.73 13.95,-9.32 21.53,-0.81 30.06,-11.5 4.65,-10.32 -4.04,-20.16 -1.93,-31.75 1.75,-9.6 7.68,-14.28 13.54,-24.1 6.46,-10.82 16.81,-41.27 21.73,-56.11 7.76,-23.44 25.52,-101.54 43.34,-114.77 1.27,12.41 0.48,26.33 2.69,37.69 1.63,8.4 5.91,17.55 7.02,27.27l7.88 137.47c-2.57,9.32 -12.99,14.14 -19.97,18.79 -6.81,4.53 -15.13,5.32 -14.6,15.86 6.3,0.48 23.79,-0.83 27.17,6.85l-28.75 4.54c-2.2,16.15 5.2,20.72 28.18,42.53l10.16 9.38c10.81,10.24 32.88,30.65 54.48,33.15 18.06,-15.78 23.02,-23.93 16.44,-50.86 7.8,-2.82 8.05,-3.78 17.12,-5.66 5.16,-85.46 0.16,-183.55 -0.3,-273.36 -0.16,-30.25 -5.41,-39.7 -7.71,-64.3 -5.46,-58.36 -0.35,-32.58 9.48,-56.6 5.97,-14.59 -7.28,-41.28 -10.89,-57.7 -6.41,-29.22 -9.65,-23.73 -27.37,-40.97 6.34,-23.37 17.62,-23.73 -6.21,-42.46l-7.06 -5.62c2.12,-8.11 2.17,-3.74 3.85,-6.56 12.54,-20.96 4.77,-40.51 24.06,-63.4 17.26,-20.48 15.27,-10.02 16.24,-9.45 7.54,8.34 7.68,29.53 9.97,42.79 2.14,12.4 8.56,20.47 13.09,34.22 5.07,15.42 2.93,26.15 9.87,41.24 6.36,13.83 5.25,4.02 9.47,16.99 7.48,23.01 -6.57,21.97 20.82,53.05 11,12.47 18.67,60.35 18.21,78.01 -0.86,33.17 -12.26,21.15 10.81,31.72 -0.22,0.81 -0.92,1.78 -1.13,2.24 -0.2,0.45 -0.84,1.64 -1.06,2.18 -5.69,14.43 0.26,12.2 4.99,17.27 28.53,-7.5 41.47,-37.48 27.67,-71.13 -4.88,-11.89 -3.86,-16.11 -4.95,-30.55 -2.06,-27.3 5.01,-43.9 0.4,-69.6l-14.5 -53.8c-1.18,-20.16 4.87,-8.7 -4.57,-29.98 -3.35,-7.54 -5.18,-16.31 -9.29,-25.79 -5.79,-13.34 -18.92,-14.37 -16.99,-53.45 1.73,-35.11 16.77,-22.57 1.96,-92.58 -2.5,-11.81 -7.77,-12.53 -11.43,-25.25 -0.62,-0.38 -1.46,-1.98 -1.7,-1.4 -0.54,1.32 -0.56,-2.51 -6.85,-3.89 -7.09,-1.55 -29.69,5.4 -34.97,5.78 -19.99,1.45 -3.13,-10.75 -21.96,0.17 -9.97,5.79 -13.22,7.72 -26.21,12.15 6.31,-29.45 -25.64,-49.62 8.62,-70.24l-0.4 -55.5c28.9,-4.81 20.68,-1.5 24.07,-12.55 -20.23,-11.46 -12.23,-7.68 -33.43,-1.16 -16.26,5 -17.38,-1.25 -28.56,-5.91 -14.28,-5.95 -51.48,-14.63 -66.5,-14.89 -66.23,-1.17 -69.29,38.26 -96.82,62.96l-31.08 -21.65c-9.95,-7.37 -18.63,-17.42 -27.43,-22.54l-7.54 -7.14c-0.99,7.04 -36.86,104.21 -93.61,68.1 -14.65,-9.32 -20.44,-30.8 -8.24,-46.81 33.27,4.5 4.79,17.15 34.03,30.18 -1.57,-8.14 -14.43,-48.92 -21.11,-55.77 -6.3,14.61 -10.45,12.76 -20.16,24.38 -13.93,16.66 -9.62,16.23 -29.75,8.78 -2.26,-31.1 17.63,-15.98 17.63,-36.79 -25.41,3.91 -37.88,21.65 -58.97,3.52 2.31,-12.06 0.75,-10.35 25.97,-17.8 11.53,-3.41 25.45,-5.9 33,-10.5l0 -13.1c-32.23,-0.13 -67.24,-5.37 -93.04,6.29 -7.63,3.45 -13.57,7.12 -18.58,10.98l-1.31 -2.52c-22.55,-44 3.29,-8.18 -44.95,-78.59 -23.95,-34.95 -46.29,-75.52 -40.31,-128.1 -16.54,24.83 -46.81,45.52 -89.49,57.59 -33.2,-32.25 6.66,-29.39 -64.12,-25.23 -38.3,17.6 -12.72,41.07 12.61,69.61 -23.27,20.49 -18.18,14.35 -38.03,13.52l-12.78 84.05c25.33,-17.32 38.58,-30.97 60.57,-50.56 25.93,17.79 28.28,34.93 36.72,56.24 -29.63,0.73 -46.91,8.96 -79.93,7.48 2.93,12.03 11.51,23.69 16.74,30.05 -4.12,8.03 -6.2,4.4 -9.8,12.92 8.96,17.14 38.6,67.04 39.74,84.07 0.97,14.55 -34.74,78.64 -38.21,82.15 -17.48,-24.32 -40.26,-40.65 -63.58,-61.43 -12.97,-11.57 -20.75,-16.51 -26.66,-34.3 -3.13,-9.41 -2.45,-16.43 -5.96,-26.48 -2.92,-8.35 -5.98,-11.93 -8.84,-20.88 -15.75,-2.34 -11.61,0.71 -17.92,-3.75l-1.93 -38.92c-3.73,-8.32 -0.37,-6.52 -4.83,-3.07 -5.65,3.57 -0.45,1.25 -6.94,6.16 -3.77,2.85 -12.87,7.01 -24.08,12.05 11.22,-5.04 20.32,-9.2 24.08,-12.05 6.49,-4.91 1.29,-2.6 6.94,-6.16l0.78 -8.88 -0.78 8.88c4.46,-3.44 1.1,-5.25 4.83,3.07 0.71,0.51 1.57,1.28 2,1.68l74.17 78.97c5.59,4.47 2.15,1.67 6.03,4.06 8.64,-15.9 4.24,-36.62 14.17,-50.96 7.07,-10.22 9.65,-6.61 11.41,-20.67 5.38,-42.95 -23.19,-46.45 -16.63,-68.5 3.96,-13.34 2.1,4.86 3.92,-12.44 1.67,-15.94 -5.09,-32.28 -8.16,-43.54l-1.35 -5.55c-0.23,-0.98 -0.37,-1.8 -0.59,-2.77 -4.69,-20.83 -4.35,-25.6 -18.62,-34.75 -24.53,-15.72 -55.33,-16.21 -82.14,-1.14 -17.5,9.83 -18.44,20.68 -27.94,33.89 -0.6,-0.39 -1.34,-1.1 -2.21,-2.07 24.35,-53.21 69.56,-111.02 72.27,-118.46 8.75,-24 3.4,-27.52 17.41,-50.04 9.96,-16.02 15.23,-20.19 24.13,-44.35 8.66,-23.51 31.29,-84.46 26.32,-107.74l9.42 -33.73c-26.2,-8.22 -11.73,-10.33 -45,-12.34 -42.31,41.76 -20.61,51.85 -40.79,79.37 -13.85,-29.35 3.76,-28.09 -27.51,-59.13 -26.95,-1.18 -45.93,-32.49 -45.77,-58.23 0.1,-16.86 7.66,-27.83 18.25,-33.84l37.47 -11.86c1.3,-0.42 3.7,-0.98 5.31,-1.95 -58.18,-25.55 -86.56,16.48 -190.67,-28.07 -22.63,-9.68 -57.73,-21.27 -83.03,-25.8l-61.08 2.13c-9.91,1.32 -10.39,-0.82 -26.91,-2.62 -13.19,-22.16 8.28,-36.44 -55.26,-53.33 -32.07,-8.52 -39.93,-6.13 -62.04,-50.83 34.76,-21.95 96.92,-77.76 110.99,-113.27 32.51,-82.08 -62.53,-193.07 -156.15,-148.76 -28.98,13.71 -13.25,18.13 -65.16,50.31 -34.64,21.47 -17.79,48.43 -33.76,76.28 -9.97,17.38 -17.34,12.27 -13.11,32.97 4.13,20.13 19.86,1.21 3.11,39.69zm-8765.5 1075.64c48.33,-57.33 21.88,-57.32 36.95,-103.71 6.27,-19.3 6.95,-14.64 11.53,-20.54 3.77,5.56 6.9,4.66 6.7,35.62 -0.41,63.14 -5.78,28.69 9.65,47.4 -14.37,42.13 -9.2,65.84 -16.59,125.36 -5.4,43.44 -0.94,86.81 -10.89,129.67 -43.21,-11.68 -12.66,-36.64 -32.1,-107.69 -4.05,-14.81 -5.64,-67.24 -5.26,-106.12zm97.63 -273.1c3.28,-7.9 6.02,-16.01 7.61,-25.27 3.83,-22.22 4.81,-55.02 13.05,-76.33 0.23,8.45 -1.37,14.05 10.41,21.97 11.51,-11.73 2.03,-16.74 15.4,-28.3 1.02,-0.88 2.02,-1.66 3.02,-2.36 3.69,3.76 8.07,8.61 13.3,14.81 2.95,3.51 5.6,6.97 7.99,10.4 -0.91,15.4 -0.75,30.31 -1.05,35.73 -1.77,32.08 -20.78,65.82 -31.3,88.96 -10.47,-5.44 -27.09,-22.25 -38.43,-39.61zm24.65 535.46c-4,21.76 -7.64,43.8 -7.83,79.95 -0.31,59.68 -1.57,121.1 -2.81,182.87 -4.06,-4.39 -4.54,-4.46 -7.07,-11.58 -4.94,-13.92 -1.05,-17.76 -10.42,-29.57 -12.85,-16.19 -9.46,-6.81 -12.07,-32.92 -3.76,-37.46 -13.44,-88.5 0.15,-109.16l29.89 -51.37c7.81,-13.9 2.62,-16.51 10.15,-28.22zm-11.14 287.73l-0.03 1.31 -0.28 -0.53 0.3 -0.77zm63.76 -945.09c1.57,-3.21 3.49,-5.34 5.85,-5.9 6.82,-1.62 1.96,-0.88 9.61,6.89 3.87,3.92 -1.87,1.84 6.43,5.99l5.3 -17.72c0.24,-0.71 0.61,-1.89 1.04,-2.78 32.67,6.03 63.58,-1.49 74.22,29.55 1.42,4.16 2.68,7.66 3.79,10.63 17.88,-14.43 42.43,-27.24 57.8,-50.84 -42.61,-67.21 -91.46,-75.43 -124.88,-57.08 -3.01,7.36 -7.84,15.48 -15.7,23.95 -17.9,19.3 -13.36,35.71 -24.25,50.67 0.17,2.21 0.44,4.43 0.8,6.65zm126.62 66.1c2.36,7.27 2.6,12.75 6.57,20.12 9.5,17.6 5.63,-1.11 9,21.22 7.91,-4.14 15,-9.98 21.16,-16.91 2.28,-12.1 8.45,-27.9 25.18,-50.04 1.8,-7.85 2.68,-15.54 2.56,-22.6 -52.32,-4.42 -47.31,36.66 -64.47,48.21zm-612.44 -59.52c-9.12,7.73 -7.47,24.45 -8,38.52 -6.79,5.42 -8.08,4.62 -17.33,9.36 -2.54,21.8 -10.46,56.9 -11.17,75.84 -1.03,27.28 4.8,57.12 7.26,84.64 4.03,45.2 17.61,101.67 37.02,140.42 -14.04,6.13 -67.83,12.17 -85.81,13.65l-4.8 -22.8 -9.54 26.4c-26.02,2.2 -53.53,-14.36 -79.39,-3.76 -4.2,11.72 5.46,22 -10.81,25.81 -13.9,3.26 -4.27,-8.08 -26.88,20.75 -15.22,19.4 -33.45,40.43 -59.5,12.82l9.56 -11.96 23.93 4.52c11.78,-16.87 25.5,-25.17 30.22,-44.74 -11.64,-6.8 -14.87,-13.51 -28.43,-16.72 -18.43,16.31 -45.19,74.37 -77.37,35.07l7.89 -11.98 23.78 4.48c11.86,-16.64 25.62,-25.21 30.14,-45.03l-14.77 -11.13 8.21 -12.61c12.51,4.4 5.4,7.08 23.71,10.12l17.37 -23.97c15.54,27.68 1.22,14.95 -4.05,41.65 9.94,6.23 12.93,11.5 25.69,16.43 11.13,-6.11 37.04,-34.75 43.67,-56.81 8.88,-29.49 19.04,-45.38 14.91,-78.79 -13.15,-106.36 19.45,-107.93 41.42,-153.76 -8.07,-10.12 7.64,-0.96 -7.48,-3.48l-4.28 -0.08c-0.4,-0.02 -1.47,0.29 -2.2,0.18 1.93,-17.64 2.78,-43.6 28.99,-36.76 19.32,35.06 -6.94,28.08 8.81,55.79 3.17,-9.13 2.61,-21.61 10.04,-30.4 13.98,-16.5 -3.53,11.26 17.77,-22.66 2.82,-4.47 0.62,-1.65 4.75,-5.82 3.2,-3.23 1.43,-1.08 5.64,-4.59 26.24,-21.91 14.64,-19.47 10.22,-35.25l20.81 16.67zm-328.24 146.15c-15.57,15.45 -6.81,14.82 -13.69,29.42 -10.05,-13.69 0.75,-18.71 -20.31,-39.49 -16.55,1 -9.35,2.05 -22.39,6.14l4.69 16.78 -12.75 -9.92c-0.4,0.69 -3.33,-2.61 -0.44,12.99l6.39 56.85c2.31,32.08 36.37,6.34 4.19,61.47 -15.17,-5.69 -8.75,-9.42 -16.92,-19.48 -26.33,24.82 -14.05,-4.26 -40.18,7.94 12.28,7.79 13.18,-2.66 35.99,8.54 0.54,0.27 1.56,0.83 2.27,1.35 -35.23,-2.07 -15.38,-3.49 -31.91,12.55 -21.24,-6.01 -36.3,-16.3 -44.53,-28.66 -16.39,-18.5 -5.52,1.73 -34.08,-15.74 -8.56,-5.23 -3.27,-4.18 -10.79,-5.18 0,0 3.44,3.22 3.44,3.27 0.05,0.38 0.27,1.49 0.26,1.94l-2.26 8.32c-14.36,-5.82 -32.04,-10.47 -36.94,-46.6 -1.68,-12.38 8.56,-61.79 10.44,-64.41 14.55,-13.27 37.03,-17.76 46.8,-32.76 58.58,-0.76 58.35,22.3 92.65,13.56 32.33,-8.24 53.97,-36.42 79.06,-21.39 25.07,15.02 -2.36,25.21 -3.55,40.57l4.55 1.94zm-73.14 132.58c19.06,8.75 6.33,20.43 -6.27,34.64 11.58,10.2 9.05,7.14 18.92,6.73l6.36 41.82c-12.6,-8.62 -19.2,-15.41 -30.14,-25.16 -18.2,12.49 -13.05,24.34 -26.01,42.28 -11.32,15.67 -13,3.73 -32.73,38.57 -16.44,29.03 -41.55,64.17 -45.03,96.28l-55.74 -17.82c15.13,-73.76 22.5,-65.67 31.98,-89.73 18.79,-47.69 9.25,-20.29 19.8,-40.86 11.22,-21.89 -1.64,-4.07 22.36,-39.11 11.92,-17.39 23.03,-37.58 20.05,-63.74 8.23,12.35 23.29,22.65 44.53,28.66 16.52,-16.04 -3.32,-14.62 31.91,-12.55zm-143.41 254.94c0,17.88 8.57,23.88 11.35,37.82 2.42,12.12 6.32,37.76 4.32,48.9 -8.39,-1.91 -10.67,-4.65 -13.18,-11.12 -7.03,-18.1 0.24,-15.72 -12.78,-18.89 -12.38,22.29 -1.35,34.66 0.07,53.52 -15.5,0.79 -18.31,-3.52 -25.77,-13.88 -31.48,-43.74 -1.45,-60.21 0.81,-108.63 15.83,3.47 18.69,8.4 35.19,12.29zm9996.04 -488.53c6.92,-5.29 13.31,-10.89 22.97,-16.95 -10.58,-53.64 -39.35,-28.07 -8.13,-83.7l34.9 48.18c35.67,-5.92 23.35,-11.17 45.44,-19.54 -22.09,8.37 -9.77,13.62 -45.44,19.54l-34.9 -48.18c-31.23,55.62 -2.45,30.05 8.13,83.7 -9.65,6.06 -16.04,11.66 -22.97,16.95zm54.89 11.81c-0.66,-0.62 -1.31,-1.23 -1.96,-1.8 -2.76,0.65 -5.3,1.38 -7.67,2.17 2.37,-0.79 4.91,-1.51 7.67,-2.17 0.65,0.57 1.3,1.18 1.96,1.8zm276.92 676.51c8.22,-7.19 15.59,-14.65 14.33,-77.56 -0.18,-8.86 0.41,-13.8 -4,-22.99 -4.51,-9.4 -1.42,-2.79 -4.04,-6.2 -5.84,3.65 -13.02,10.06 -21,18.31 7.98,-8.24 15.16,-14.66 21,-18.31 2.62,3.41 -0.47,-3.2 4.04,6.2 4.42,9.2 3.83,14.13 4,22.99 1.26,62.91 -6.12,70.37 -14.33,77.56zm-388.45 221.01c3.81,5.7 4.1,14.2 5.59,31.45 -1.95,1.02 -3.8,2.12 -5.59,3.29l0 -34.75zm294.01 -874.72c-9.24,-15.2 -13.51,-33 -25.2,-44.05 -7.93,4.01 -13.55,11.2 -18.63,19.57 5.08,-8.37 10.7,-15.56 18.63,-19.57 11.68,11.05 15.96,28.85 25.2,44.05zm633.12 39.2l-7.54 -7.14c-0.99,7.04 -36.86,104.21 -93.61,68.1 -14.65,-9.32 -20.44,-30.8 -8.24,-46.81 33.27,4.5 4.79,17.15 34.03,30.18 -1.57,-8.14 -14.43,-48.92 -21.11,-55.77 -6.3,14.61 -10.45,12.76 -20.16,24.38 -13.93,16.66 -9.62,16.23 -29.75,8.78 -2.26,-31.1 17.63,-15.98 17.63,-36.79 -25.41,3.91 -37.88,21.65 -58.97,3.52 2.31,-12.06 0.75,-10.35 25.97,-17.8 11.53,-3.41 25.45,-5.9 33,-10.5l0 -13.1c21.07,1.47 31.46,-6.31 44.41,-13.76 -2.73,-6.58 -4.14,-4.2 -5.39,-4.95 -0.25,-0.15 -1.29,-0.65 -1.51,-0.77 -0.22,-0.12 -1.12,-0.39 -1.59,-0.73 2.25,-8.97 3,-12.29 4.56,-22.75 2.73,-18.32 13.64,-54.83 25.3,-66.4 9.94,-9.87 28.66,-13.71 42.34,-15.89 37.05,-5.89 64.22,5.9 73.79,44.15 5.23,20.9 -2.78,23.99 -3.32,25.46 -5.62,15.06 2.06,10.44 -6.68,26.03 -16.22,28.94 -3.8,19.38 -37.17,69.81 -4.52,6.82 -3.89,2.32 -5.99,12.77zm343.24 128.67c-0.62,-0.38 -1.46,-1.98 -1.7,-1.4 -0.54,1.32 -0.56,-2.51 -6.85,-3.89 -7.09,-1.55 -29.69,5.4 -34.97,5.78 -19.99,1.45 -3.13,-10.75 -21.96,0.17 -9.97,5.79 -13.22,7.72 -26.21,12.15 6.31,-29.45 -25.64,-49.62 8.62,-70.24l-0.4 -55.5c28.9,-4.81 20.68,-1.5 24.07,-12.55 5.26,-14.76 -9.54,-0.13 23.23,-18.66 24.37,-13.77 60.96,-25.67 86.63,-12.16 22.23,11.7 19.32,5.41 30.89,40.17 6.53,19.59 19.75,38.82 -3.08,76.9 -5.71,9.52 -10.92,12.55 -19.42,8.13 -21.73,-11.32 14.11,-1.27 -5.34,-3.9 -17.08,23.85 -16.44,3.78 -36.65,18.36l-16.86 16.64zm-633.46 99.86l-26.5 -14.14c-11.72,-7.8 -7.97,-13.68 -4.37,-24.32 6.43,-19 -7.38,-1.79 2.22,-17.29 4.37,-7.06 10.22,-16.19 3.47,-28.48 0.62,-0.53 1.72,-1.97 2.01,-1.39 1.2,2.4 4.59,-4.93 11.38,-11.95 12.61,21.56 24.8,43.78 34.32,65.97 -3.39,4.1 -7.6,9.06 -12.72,17.35l-9.82 14.27zm456.26 37.95c35.78,-3.02 15.1,38.76 50.69,18.97 -2.23,-13.28 2.84,-2.6 -7.41,-12.22 -8.53,-8.01 -22.23,-14.14 -30.43,-26.73 41.8,-65.94 96.24,-12.32 72.7,25.12 -49.07,78.05 -86.08,24.66 -85.55,-5.14zm-5431.56 705.99l83.72 -74.09c26.08,-31.67 46.08,-62.27 71.74,-91.63 26.4,-30.2 53.17,-49.77 78.41,-77.85 32.33,-35.96 22.46,-50.92 73.56,-89.91 -1.94,-118.73 -32.85,-101.23 -37.57,-183.56 -4.1,-71.52 -5.51,-136.79 -30.56,-195.23 -22.41,3.3 -33.71,23.41 -60.78,51.69 -8.4,-40.45 12.7,-99.81 -7.22,-132.55 -9.55,14.45 -3.97,11.29 -9.94,28.8 -4.85,14.2 -7.76,17.64 -13.87,31.25 -15.5,-16.62 -12.75,-13.58 -2.13,-63.06 23.38,-109.02 37.63,-83.82 73.46,-88.72 34.35,-4.7 23.99,-14.91 26.16,-50.37l-79.17 2.9c0.54,-53.22 -2.2,-107.69 -3.54,-162.9 -0.58,-23.91 -7.78,-57.77 -6.38,-75.31 4.01,-50.21 15.08,-16.64 47.48,-33.2l0.29 -20.4 -58.16 -5.44 -13.39 -197.04c-23.84,5.02 -10.22,-18.06 -30.01,65.49 -6.57,27.78 -17.73,50.8 -19.11,82.29 -1.89,43.07 13.96,75.84 5.29,105.98 -0.49,1.71 -1.43,3.33 -2.02,4.99l-4.57 9.7c-12.44,35.24 7.1,91.68 9.44,138.8 3.3,66.68 -15.29,14.23 -23.64,79.74 -7.9,61.96 -7.96,122.21 -17.96,186.31 -18.65,119.44 -37.94,234.02 -40.23,358.66 -2.5,136.25 5.52,260.37 -9.31,394.67zm-2728.8 -1659.67c7.87,-17.52 0.77,-13.72 10.17,-6.47l-2.44 -27.63c39.65,-34.81 44.6,-91.56 77.57,-122.73 44.68,22.6 54.45,93.03 101.01,131.16 21.12,17.29 29.71,23.8 34.5,45.49 60.8,23.8 30.02,44.29 61.77,75.75 8.63,8.55 82.36,41.91 87.38,39.95 5.69,-5.13 -1.91,-33.16 12.02,-61.81 13.91,-28.61 14.6,-16.76 12.86,-59.61 -1.82,-44.83 18.31,-95.64 -10.92,-119.48l11.76 -7.44c-28.74,-46.59 22.01,8.11 -33.5,-108.5 -18.79,-39.47 -27.77,-77.78 -55.77,-94.55 -132.19,-79.18 -197.69,48.81 -214.31,59.6 -20.02,-27.81 -21.98,-50.66 -58.84,-71.37 -56.46,-31.73 -121.31,-30.7 -172.95,2.4 -30.05,19.27 -29.34,29.31 -39.21,73.18 -0.46,2.05 -0.75,3.77 -1.24,5.83l-2.85 11.69c-6.45,23.72 -20.68,58.11 -17.17,91.68 3.81,36.43 -0.1,-1.89 8.25,26.2 13.8,46.43 -46.35,53.8 -35.03,144.23 3.7,29.58 9.13,21.99 24.03,43.52 20.91,30.19 11.65,73.81 29.83,107.29 8.16,-5.04 0.91,0.84 12.69,-8.56l156.18 -166.28c0.91,-0.83 2.72,-2.46 4.2,-3.53zm-39.18 1992.29c-17.58,13.66 -28.8,11.5 -34.17,12.27 -21.67,3.13 -14.74,-1.34 -38.53,5.82 -38.12,114.07 -18.9,84.17 -58.94,113.26 -12.57,9.13 -20.41,5.24 -25.85,65.84 -3.77,41.96 1.07,48.79 10.14,81.14 24.26,-7.66 36.84,-23.55 63,-38.16 63.24,-35.32 141.39,-128.58 180.64,-144.3 16.37,-27.89 96.68,-85.08 116.94,-109.26 -17.18,-39.26 -28.57,-57.68 -56.41,-72.2 -1.46,-0.76 -3.24,-1.66 -4.69,-2.42 -40.23,-21 -38.59,-18.41 -45.25,-48.84l-27.93 -19.32c4.54,-28.53 24.48,-51.34 30.29,-80.11 12.78,-63.31 -31.58,-47.92 54.38,-118.72 1.16,-0.95 2.84,-2.09 4,-3.05 19.26,-16 10.56,-2.15 19.17,-22.27 3.71,-8.67 7.91,-30.61 11.81,-41.26 19.55,-53.24 28.75,-29.7 -28.02,-100.22 -16.72,-20.77 -29.18,-38.5 -43.7,-58.35 -52.71,-72.05 -201.23,-283.09 -267.57,-324.51 -5.52,7.18 1,-6.74 -8.5,13.04 -9.29,19.36 -8.05,29.76 -8.42,48.42 -3.49,174.8 24.66,146.31 46.78,181.45 18.74,29.77 15.52,83.5 26.03,123.62 7.88,30.06 24.7,70.47 35.09,106.44 10.96,37.89 14.47,89.88 40.89,109.87 21.69,16.42 25.9,6.59 41.88,32.88 20.91,34.41 4.21,134.88 -2.22,183.08 -9.57,71.75 19.02,67.33 -30.84,105.85zm2668.32 -2168.54c29.16,-9.78 11.01,-6.93 16.18,-0.16 -38.5,31.8 -58,149.67 -73.77,208.04l35.43 -3.61c-12.29,100.51 -31.35,234.06 -64.26,321.89 -28.92,77.23 -87.22,198.57 -150.66,236.64l23.14 22.32c15.54,10.07 37.54,11.53 86.29,48.98l65.46 39.83 44.39 -98.44c0.33,26.38 -4.79,28.23 3.2,48.48 188.88,-13.01 155.08,25.57 143.57,-150.74 -4.22,-64.53 4.14,-85.66 15.08,-142.29 18.13,-93.87 9.66,-209.17 8.45,-306.72 1.42,-0.82 3.99,-3.1 4.65,-1.63 0.64,1.43 3.67,-1.28 4.56,-1.49l20.93 -3.68c12.35,-60.75 5.67,-58.11 -1.15,-114.12 -25.61,-1.62 -29.75,-11.71 -40.93,38.72 -19.19,86.54 -47.35,45.58 -55.35,109.31 -3.43,27.28 2.23,42.72 -18.22,55.36 -15.15,-31.55 0.88,-52.6 -27.01,-89.09 -8.21,-10.73 -40.13,-47.46 -45.64,-64.46 -26.2,-80.92 39.03,-120.75 43.4,-179 -27.58,-1.59 -22.41,1.06 -37.75,25.86zm-3930.04 194.71l15.87 -15.03c2.09,14.82 77.61,219.42 197.12,143.39 30.85,-19.63 43.05,-64.86 17.36,-98.56 -70.04,9.48 -10.08,36.11 -71.65,63.54 3.3,-17.14 30.37,-103.01 44.45,-117.43 13.25,30.75 21.99,26.86 42.45,51.33 29.33,35.08 20.26,34.17 62.64,18.49 4.75,-65.48 -37.12,-33.65 -37.13,-77.46 53.51,8.24 79.76,45.58 124.17,7.42 -4.86,-25.4 -1.58,-21.8 -54.69,-37.49 -24.28,-7.17 -53.59,-12.43 -69.49,-22.11l0 -27.6c-44.36,3.1 -66.25,-13.28 -93.5,-28.98 5.73,-13.86 8.73,-8.84 11.33,-10.42 0.53,-0.32 2.73,-1.37 3.19,-1.62 0.46,-0.26 2.36,-0.82 3.35,-1.55 -4.74,-18.88 -6.31,-25.87 -9.6,-47.89 -5.75,-38.57 -28.73,-115.46 -53.27,-139.82 -20.92,-20.77 -60.35,-28.88 -89.15,-33.47 -78.02,-12.41 -135.24,12.43 -155.39,92.97 -11,44.01 5.85,50.51 7,53.6 11.84,31.71 -4.34,21.97 14.05,54.8 34.15,60.93 8,40.8 78.27,146.99 9.51,14.37 8.18,4.88 12.61,26.89zm5845.23 -34.65c14.43,-27.68 -1.97,-9.28 29.58,0.47 57.45,17.74 60.03,-8.42 111.43,39.39 53.33,49.62 107.03,58.21 119.77,66.71 4.88,-37.44 -23.18,-89 -36.09,-123.13l-35.6 -124.85c-12.9,-55.56 -6.91,-30.54 -38.08,-66.34l-9.69 -11.17c-1.05,-1.01 -2.56,-2.37 -3.66,-3.33 -9.71,-8.41 -7.78,-4.27 -15.62,-11.09 -15.89,-13.81 -9.61,-19.59 -27.4,-33.8l-44.38 -37.78c-17.3,-7.71 -39.08,-0.77 -66.84,-13.71 -41.08,-19.15 -1.85,-10.65 -36.66,-26.32 -31.96,-2.17 -108.03,25.34 -120.77,49.62 -12.07,23.02 -5.65,45.97 -10.37,73.34 -5.34,30.94 -20.68,31.39 -19.77,68.53 0.59,23.88 4.8,47.59 19.83,62.74 22.73,22.92 12,1 42.58,46.73 5.99,8.96 8.42,16.55 22.08,20.9l8.33 1.1c5.9,1.2 7.71,-0.46 17.06,4.47 29.77,15.7 -12.26,6.21 61.44,30.13 1.44,-0.76 2.97,-4.55 3.42,-3.51l16.97 -25.81c9.78,23.93 6.5,9.39 12.45,16.68zm-4269.98 1266.14c115.76,-63.51 58.91,-64.05 78.85,-117.87 19.65,-53.03 11.83,-212.19 11.81,-275.03 -1.37,-1.13 -3.81,-4.15 -4.5,-2.85l-23.41 -18.67c-5.24,-6.26 -13.28,-23.04 -16.96,-30.43 -53.29,-106.96 -63.54,-87.55 -114.36,-191.45 -42.4,31.38 -53.16,97.93 -92.31,142.55 -25.53,29.1 -42.99,33.76 -27.81,80.01 12.62,38.44 9.42,70.9 22.59,100.64 17.44,39.36 30.11,139.37 65.42,233.46 22.31,59.45 74.16,17.36 100.68,79.65zm7092.44 -1041.72c31.27,31.05 13.67,29.78 27.51,59.13 20.19,-27.52 -1.51,-37.61 40.79,-79.37 33.27,2.02 18.79,4.12 45,12.34l-9.42 33.73 25.62 -19.94c0.79,1.4 6.68,-5.24 0.87,26.11l-12.84 114.23c-4.63,64.47 -73.08,12.75 -8.43,123.53 30.49,-11.44 17.58,-18.92 34,-39.16 52.93,49.89 28.25,-8.55 80.76,15.96 -24.68,15.65 -26.5,-5.34 -72.32,17.17 -1.08,0.53 -3.14,1.67 -4.57,2.71 70.79,-4.16 30.92,-7.02 64.12,25.23 42.69,-12.07 72.95,-32.77 89.49,-57.59 32.95,-37.17 11.11,3.48 68.49,-31.63 17.2,-10.52 6.56,-8.41 21.68,-10.4 -0.01,0 -6.9,6.47 -6.92,6.56 -0.11,0.77 -0.53,2.99 -0.53,3.91l4.56 16.71c28.86,-11.69 64.38,-21.03 74.23,-93.64 3.37,-24.88 -17.19,-124.18 -20.98,-129.45 -29.25,-26.67 -74.42,-35.69 -94.05,-65.84 -117.72,-1.53 -117.26,44.82 -186.19,27.25 -64.96,-16.56 -108.45,-73.19 -158.88,-42.97 -50.37,30.18 4.74,50.66 7.13,81.53l-9.13 3.9zm-6043.41 70.54c-86.2,1.47 -91.17,69.93 -150.24,72.8 -7.44,-43.6 -56.4,-87.75 -55.72,-126.8l-12.22 24.99c1.74,-8.06 -20.86,-12.44 -23.38,-13.02 -0.19,-0.04 -29.11,-0.33 -29.86,-0.22 -67.12,9.89 -69.69,95.74 -70.91,142.96l-53.72 -2.17c-15.78,-54.75 20.59,-84.35 21.76,-137.38l-143.07 -55.95c16.87,235.65 140,187.99 146.41,303.03 49.87,-17.58 21.96,16.84 53.71,2.89 -13.75,-10.96 -56.2,-21.53 21.45,-51.01 12.62,17.9 26.29,43.16 46.39,52.66l-0.59 -49.27c52.14,2.84 6.6,0.84 31.76,24.02 24.91,-12.55 -10.76,14.4 9.94,-7.53 0.71,-0.75 2.34,-2.44 3.07,-3.29l8.43 -12.16c11.11,22.36 5.88,21.14 1.18,34.64 -7.76,22.29 -5.95,11.33 -11.41,39.13 1.54,1.15 4.3,0.66 4.99,2.87l17.83 3.93c-1.1,87.11 -43.56,186.71 -6.83,282.5 54.69,-1.23 30.25,-21.1 45.1,-62.11 6.39,-17.66 24.69,-44.75 29.06,-77.3 4.65,-34.68 -4.3,-52.52 10.22,-84.36 16.78,-36.79 20.29,-6.73 17.98,-54.23 -0.09,-1.91 -0.38,-3.86 -0.43,-5.74l0.43 -11.65c0.77,-22.36 13.57,8.86 24.66,-55.23 5.79,-33.4 10.2,-23.38 27.96,-54.86 19.22,-34.08 19.85,-80.31 36.03,-122.14zm313.01 -475.82l13.17 11.33c-0.04,0.14 -2.07,0.51 -2.67,3.67 -5.76,30.45 -6.84,-4.41 -12.05,22.47 -2.26,11.68 3.38,13.46 2.22,36.25 -1.21,23.72 -11.03,53.95 -12.81,83.17 -3.36,55.27 -5.83,124.44 18.85,160.58 44.12,5.72 71.7,-39.93 133.21,-67.94 40.14,-18.28 74.84,-71.33 115.45,-89.35 0.86,0.8 3.03,0.17 3.48,0.44l9.38 6.18c14.73,-47.63 67.58,-51.82 57.09,-152.35 -0.9,-8.56 -18.03,-71.3 -23.63,-79.18 -27.29,-38.42 -52,-16.13 -95.3,-53.92 -12.52,-10.93 -18.29,-16.22 -37.31,-17.31 -75.49,-4.3 -91.94,50.97 -122.15,82.06 -48.39,49.8 -15.67,43.24 -46.94,53.91zm-3660.04 486.44c1.32,-0.8 3.07,-4.16 3.57,-2.94 1.14,2.77 1.19,-5.29 14.44,-8.19 14.92,-3.27 62.52,11.36 73.64,12.17 42.1,3.06 6.58,-22.64 46.24,0.37 20.99,12.18 27.84,16.25 55.18,25.57 -13.29,-62.01 54,-104.48 -18.14,-147.91l0.84 -116.87c-60.86,-10.12 -43.55,-3.16 -50.68,-26.42 -11.08,-31.08 20.1,-0.28 -48.92,-39.3 -51.32,-29.01 -128.36,-54.06 -182.42,-25.6 -46.81,24.65 -40.67,11.4 -65.05,84.59 -13.74,41.25 -41.59,81.75 6.49,161.91 12.03,20.05 23,26.44 40.89,17.12 45.74,-23.83 -29.71,-2.67 11.23,-8.21 35.97,50.22 34.62,7.95 77.18,38.67l35.5 35.04zm4690.53 -491.5c-4.37,58.25 -69.61,98.08 -43.4,179 5.51,17 37.43,53.73 45.64,64.46 27.89,36.49 11.86,57.54 27.01,89.09 20.45,-12.64 14.79,-28.08 18.22,-55.36 8,-63.74 36.16,-22.77 55.35,-109.31 11.17,-50.43 15.32,-40.34 40.93,-38.72 9.5,-12.76 7.17,-12.31 25.12,-15.42 23.38,-4.05 -3.17,0.93 35.75,7.12 -12.46,-22.07 -14.2,-4.73 -2.19,-35.98 11.36,-29.57 120.49,-103.96 63.59,-220.89 -17.76,-36.48 -71.41,-57.78 -120.71,-56.39 -101.1,2.84 -65.85,36.57 -126.9,54.48 7.6,39.82 10.94,16.25 -12.72,51.13 -21.67,31.93 -14.07,55.92 2.19,78.5l-7.87 8.3zm451.74 501.6c32.62,-20.65 20.22,-27.31 47.1,-33.39 11.19,13.06 28.4,80.48 139.46,138.26 26.65,13.87 -2.37,8.28 30.06,9.34 6.36,-14.1 10.39,-38.45 18.12,-48.39 10.76,-13.82 26.22,-14.01 43.57,-30.02 6.09,-35.72 -12.15,-1.7 -4.37,-48.09 4.51,-26.94 10.97,-17.44 26.52,-35.26 -15.9,-42.76 -53.64,-54.21 -5.56,-104.34 -41.68,-47.08 -54.97,-99.25 -78.28,-138.77 -23.68,-2.23 -138.35,-14.94 -151.17,-9.05 -1.15,0.53 -83.28,88.11 -91.49,119.74 -16.94,65.36 47.93,126.23 26.03,179.98zm805.22 -308.01l13.45 -3.25c52.83,18.51 16.4,45.63 69.72,81.74 38.99,26.41 38.25,48.35 51.98,69.66 19.91,30.91 -4.95,11.27 27.47,21.34 11.68,-46.83 0.14,-39.47 -0.99,-79.02 28.5,-22.77 73.57,-35.94 52.24,-100.77 -15.76,-47.88 -16.12,20.37 -50.19,-109.41 -12.34,-47 -4.43,-6.71 6.64,-43.57 6.77,-22.55 1.05,-47.81 -12.23,-63.83 -26.52,-31.98 3.74,-0.33 -25.1,-16.26 -11.49,-6.34 -5.52,4.52 -20.33,-20.47 -86.53,-146.04 -316.68,1.87 -184.66,163.96 16.57,20.35 17.46,16.94 33.13,47.25 20.51,39.66 22.39,18.42 38.87,52.63zm2069.12 434.77c-10.49,39.15 -22.04,7.21 -21.5,90.79 0.82,126.89 11.62,57.66 -19.39,95.25 28.87,84.67 18.48,132.31 33.33,251.93 10.85,87.31 1.9,174.47 21.89,260.59 86.84,-23.46 25.43,-73.63 64.51,-216.4 11.64,-42.53 13.15,-239.41 7.48,-290.65 -10.35,-93.58 6.52,-92.71 33.42,-161.12 -17,-19.41 -25.06,-21.36 -39.79,-46.27 -26.41,-44.66 -45.86,-70.32 -52.27,-137.27 -2.12,-22.16 -3.22,-64.68 -13.35,-79.42 -11.24,15.69 -45.32,142.48 -43.74,181.09 1.21,29.5 7.86,32.61 29.41,51.49zm-169.24 -439.97c31.9,-21.44 15,-34.38 24.01,-64.3 12.77,-42.35 13.44,-3.15 47.71,-44 -16.83,-52.92 -52.73,-30.33 -36.09,-136.02 7.45,-47.28 50.14,-10.66 12.88,-115.76 -17.82,-50.27 -26.19,-79.25 -81.91,-102.7 -48.77,-20.52 -100.35,2.64 -127.99,29.82 -39.95,39.28 -37.01,61.15 -21.91,118.72 3.89,14.82 -5.98,60.96 43.31,114.1 40.3,43.45 24,79.6 58.1,112.56 15.67,15.14 32.73,14.96 50.93,30.7 26.87,23.24 7.81,33.3 30.94,56.87zm-4116.16 1669.81c20.22,-103.11 27.09,-208.57 32.16,-309.64 1.79,-35.61 15.84,-64.25 17.36,-95.56 1.95,-40.5 -13.11,-46.19 3.1,-93.07 14.42,-41.71 3,-79.76 43.13,-185.79 24.38,-64.41 16.74,-46.86 -20.99,-74.18 2.4,-35.97 24.48,-34.17 57.98,-32.24 -20.94,-35.94 -17.69,-16.26 -21.71,-69.54 -35.67,-1.8 -64.67,-18.6 -94.71,-26.97 -11.49,22.56 -52.22,172.96 -52.97,203.22 -4.7,189.15 -23.55,163.77 -28.15,239.25 -2.01,32.9 33.86,79.3 35.91,230.17 1.8,132.36 -36.3,170.06 28.91,214.35zm-590.14 -1431.31c-0.67,39.06 48.28,83.2 55.72,126.8 59.08,-2.87 64.05,-71.33 150.24,-72.8l32.05 -229.45c-35.67,4.22 0.44,5 -57.08,27.97 -22.7,9.07 -43.75,15.14 -67.14,24.09 -13.85,5.29 -39.75,26.79 -46.52,39.39 -21.33,39.72 6.76,25.28 -52.35,43.13 -14.9,28.4 9.31,20.9 -14.94,40.85zm3389.6 367.12c122.94,51.25 110.81,103.86 161.24,183.1 18.6,29.22 14.48,62.3 45.88,74.96 7.07,-99.87 -20.94,-21.52 -13.7,-96.05 5.02,-51.76 0.24,-63.94 16.97,-114.4l-38.58 -58.61c-40.92,-70.63 22.68,-59.7 -29.66,-106.03 -21.98,-19.46 -37.66,-51.8 -86.14,-60.66 -0.28,155.79 -46.75,95.6 -56.01,177.7zm-4496.86 -598.35c11.9,7.51 0.96,2.63 14.62,12.97 21.33,16.15 123.77,52.15 176.09,90.96 6.01,-9.89 -0.89,7.99 6.84,-15.47 2.34,-7.12 3.84,-14.5 5.24,-21.27 2.9,-13.93 5.11,-24.92 7.84,-40.91 -4.78,-21.69 -13.37,-28.2 -34.5,-45.49 -46.56,-38.13 -56.32,-108.56 -101.01,-131.16 -32.97,31.16 -37.92,87.91 -77.57,122.73l2.44 27.63zm3415.74 745.34c52.01,7.28 58.09,15.95 108.26,18.03 13.31,-79.82 -16.87,-154.48 -90.74,-134.96 19.85,-42.09 108.36,-130.5 120.12,-173.06 -19.51,-18.69 -23.5,-12.37 -40.99,-24.4 -28.96,-19.91 -6.73,-28.82 -44.52,-29.71 -16.62,52.35 -21.38,102.4 -39.4,158 -19.4,59.9 -11.29,119.63 -12.72,186.09zm-4115.72 -239.21l55.8 -29.79c24.68,-16.42 16.79,-28.79 9.2,-51.21 -13.53,-40 15.53,-3.76 -4.67,-36.4 -9.21,-14.88 -21.52,-34.09 -7.3,-59.98 -1.31,-1.13 -3.63,-4.15 -4.24,-2.94 -3.61,7.19 -16.54,-27.09 -46.16,-42.04 -46.89,-23.65 -17.83,-19.02 -36.61,-58.4l-32.25 0.03c-4.18,23.06 -5.86,145.92 -2.34,169.13 5.79,38.15 20.82,37.66 47.91,81.55l20.67 30.04zm6879.09 -876.37c16.66,6.37 4.97,-1 -7.31,13.31l-27.85 53.78c1.53,0.41 4.04,-1.31 4.74,0.29l34.92 1.45c97.47,20.76 91.71,59.27 105.86,64.51 34.81,0.57 58.53,-16.58 59.87,-49.57 1.61,-39.8 -31.33,-30.6 -42.39,-65.35 -12.95,-11.3 -3.56,-4.58 -11.06,-14.2 -37.48,-48.06 -101.02,-35 -116.78,-4.23zm-56.54 839.41c38.85,59.31 68.13,67.25 87.01,93.01l11.97 -20.31c10.17,-22.6 10.47,-32.75 30.65,-40.31 10.98,-4.12 6.85,-1.39 13.29,-2.66l9.04 -1.64c0.88,-0.16 3.12,-0.27 4.53,-0.9l-77.98 -103.46c-47.64,13.95 -63.66,20.53 -78.52,76.27z"/>
 </g>
</svg>
